<mxfile host="65bd71144e">
    <diagram name="第 1 页" id="N6iN6V0hHzY832mEbOhE">
        <mxGraphModel dx="1987" dy="947" grid="1" gridSize="10" guides="1" tooltips="1" connect="0" arrows="1" fold="1" page="0" pageScale="1" pageWidth="827" pageHeight="1169" math="0" shadow="0">
            <root>
                <mxCell id="0"/>
                <mxCell id="1" parent="0"/>
                <mxCell id="pp8-QFKgKfyrIBCOwYfq-483" value="" style="rounded=1;whiteSpace=wrap;html=1;fillColor=#f9f7ed;strokeColor=#000000;" parent="1" vertex="1">
                    <mxGeometry x="-920" y="440" width="2320" height="1160" as="geometry"/>
                </mxCell>
                <mxCell id="pp8-QFKgKfyrIBCOwYfq-482" value="s" style="rounded=1;whiteSpace=wrap;html=1;fillColor=#f9f7ed;strokeColor=#000000;fontStyle=4" parent="1" vertex="1">
                    <mxGeometry x="-921" y="-190" width="2320" height="549" as="geometry"/>
                </mxCell>
                <mxCell id="pp8-QFKgKfyrIBCOwYfq-14" value="&lt;b style=&quot;&quot;&gt;&lt;font color=&quot;#000000&quot; style=&quot;font-size: 18px;&quot;&gt;ICache&lt;/font&gt;&lt;/b&gt;" style="rounded=1;whiteSpace=wrap;html=1;fillColor=#fad9d5;strokeColor=#000000;direction=east;flipV=0;fontSize=14;" parent="1" vertex="1">
                    <mxGeometry x="-791" y="-142" width="321" height="61" as="geometry"/>
                </mxCell>
                <mxCell id="pp8-QFKgKfyrIBCOwYfq-109" style="edgeStyle=orthogonalEdgeStyle;rounded=0;orthogonalLoop=1;jettySize=auto;html=1;exitX=1;exitY=0.5;exitDx=0;exitDy=0;entryX=0;entryY=0.5;entryDx=0;entryDy=0;strokeColor=#000000;" parent="1" source="pp8-QFKgKfyrIBCOwYfq-94" target="pp8-QFKgKfyrIBCOwYfq-102" edge="1">
                    <mxGeometry relative="1" as="geometry">
                        <Array as="points">
                            <mxPoint x="-600" y="1000"/>
                            <mxPoint x="-600" y="920"/>
                        </Array>
                    </mxGeometry>
                </mxCell>
                <mxCell id="pp8-QFKgKfyrIBCOwYfq-110" style="edgeStyle=orthogonalEdgeStyle;rounded=0;orthogonalLoop=1;jettySize=auto;html=1;exitX=1;exitY=0.5;exitDx=0;exitDy=0;entryX=0;entryY=0.5;entryDx=0;entryDy=0;strokeColor=#000000;" parent="1" source="pp8-QFKgKfyrIBCOwYfq-94" target="pp8-QFKgKfyrIBCOwYfq-103" edge="1">
                    <mxGeometry relative="1" as="geometry">
                        <Array as="points">
                            <mxPoint x="-600" y="1000"/>
                            <mxPoint x="-600" y="1160"/>
                        </Array>
                    </mxGeometry>
                </mxCell>
                <mxCell id="pp8-QFKgKfyrIBCOwYfq-111" style="edgeStyle=orthogonalEdgeStyle;rounded=0;orthogonalLoop=1;jettySize=auto;html=1;exitX=1;exitY=0.5;exitDx=0;exitDy=0;entryX=0;entryY=0.5;entryDx=0;entryDy=0;strokeColor=#000000;" parent="1" source="pp8-QFKgKfyrIBCOwYfq-94" target="pp8-QFKgKfyrIBCOwYfq-104" edge="1">
                    <mxGeometry relative="1" as="geometry">
                        <Array as="points">
                            <mxPoint x="-600" y="1001"/>
                            <mxPoint x="-600" y="1399"/>
                        </Array>
                    </mxGeometry>
                </mxCell>
                <mxCell id="pp8-QFKgKfyrIBCOwYfq-168" style="edgeStyle=orthogonalEdgeStyle;rounded=0;orthogonalLoop=1;jettySize=auto;html=1;exitX=1;exitY=0.5;exitDx=0;exitDy=0;entryX=0;entryY=0.5;entryDx=0;entryDy=0;strokeColor=#000000;" parent="1" source="pp8-QFKgKfyrIBCOwYfq-94" target="pp8-QFKgKfyrIBCOwYfq-101" edge="1">
                    <mxGeometry relative="1" as="geometry">
                        <Array as="points">
                            <mxPoint x="-600" y="1000"/>
                            <mxPoint x="-600" y="680"/>
                        </Array>
                    </mxGeometry>
                </mxCell>
                <mxCell id="pp8-QFKgKfyrIBCOwYfq-94" value="&lt;b&gt;&lt;font style=&quot;font-size: 24px;&quot;&gt;Dispatch&lt;/font&gt;&lt;/b&gt;" style="rounded=1;whiteSpace=wrap;html=1;fillColor=#e1d5e7;strokeColor=#000000;" parent="1" vertex="1">
                    <mxGeometry x="-784.5" y="840.5" width="120" height="320" as="geometry"/>
                </mxCell>
                <mxCell id="pp8-QFKgKfyrIBCOwYfq-97" value="" style="endArrow=none;html=1;rounded=0;strokeColor=#000000;" parent="1" edge="1">
                    <mxGeometry width="50" height="50" relative="1" as="geometry">
                        <mxPoint x="-812" y="1005" as="sourcePoint"/>
                        <mxPoint x="-802" y="995" as="targetPoint"/>
                    </mxGeometry>
                </mxCell>
                <mxCell id="pp8-QFKgKfyrIBCOwYfq-98" value="2" style="text;html=1;align=center;verticalAlign=middle;resizable=0;points=[];autosize=1;strokeColor=#000000;fillColor=none;" parent="1" vertex="1">
                    <mxGeometry x="-821" y="996" width="30" height="30" as="geometry"/>
                </mxCell>
                <mxCell id="pp8-QFKgKfyrIBCOwYfq-99" value="pack_RN" style="text;html=1;align=center;verticalAlign=middle;resizable=0;points=[];autosize=1;strokeColor=#000000;fillColor=none;fontStyle=1;fontSize=14;" parent="1" vertex="1">
                    <mxGeometry x="-880" y="975" width="80" height="30" as="geometry"/>
                </mxCell>
                <mxCell id="pp8-QFKgKfyrIBCOwYfq-129" style="edgeStyle=orthogonalEdgeStyle;rounded=0;orthogonalLoop=1;jettySize=auto;html=1;exitX=1;exitY=0.5;exitDx=0;exitDy=0;entryX=0;entryY=0.5;entryDx=0;entryDy=0;strokeColor=#000000;" parent="1" source="pp8-QFKgKfyrIBCOwYfq-101" target="pp8-QFKgKfyrIBCOwYfq-120" edge="1">
                    <mxGeometry relative="1" as="geometry"/>
                </mxCell>
                <mxCell id="pp8-QFKgKfyrIBCOwYfq-101" value="&lt;b style=&quot;border-color: var(--border-color); font-size: 16px;&quot;&gt;Arith &amp;amp; Priv Issue Queue&lt;/b&gt;" style="rounded=0;whiteSpace=wrap;html=1;fillColor=#f8cecc;strokeColor=#000000;fontSize=16;" parent="1" vertex="1">
                    <mxGeometry x="-480" y="660" width="241" height="40" as="geometry"/>
                </mxCell>
                <mxCell id="pp8-QFKgKfyrIBCOwYfq-131" style="edgeStyle=orthogonalEdgeStyle;rounded=0;orthogonalLoop=1;jettySize=auto;html=1;exitX=1;exitY=0.5;exitDx=0;exitDy=0;entryX=0;entryY=0.5;entryDx=0;entryDy=0;strokeColor=#000000;" parent="1" source="pp8-QFKgKfyrIBCOwYfq-102" target="pp8-QFKgKfyrIBCOwYfq-121" edge="1">
                    <mxGeometry relative="1" as="geometry"/>
                </mxCell>
                <mxCell id="pp8-QFKgKfyrIBCOwYfq-102" value="&lt;b style=&quot;border-color: var(--border-color); font-size: 16px;&quot;&gt;Arith &amp;amp; Br Issue Queue&lt;/b&gt;" style="rounded=0;whiteSpace=wrap;html=1;fillColor=#f8cecc;strokeColor=#000000;fontSize=16;" parent="1" vertex="1">
                    <mxGeometry x="-480" y="900" width="241" height="40" as="geometry"/>
                </mxCell>
                <mxCell id="pp8-QFKgKfyrIBCOwYfq-133" style="edgeStyle=orthogonalEdgeStyle;rounded=0;orthogonalLoop=1;jettySize=auto;html=1;exitX=1;exitY=0.5;exitDx=0;exitDy=0;entryX=0;entryY=0.5;entryDx=0;entryDy=0;strokeColor=#000000;" parent="1" source="pp8-QFKgKfyrIBCOwYfq-103" target="pp8-QFKgKfyrIBCOwYfq-122" edge="1">
                    <mxGeometry relative="1" as="geometry"/>
                </mxCell>
                <mxCell id="pp8-QFKgKfyrIBCOwYfq-103" value="&lt;b style=&quot;font-size: 16px;&quot;&gt;Mul &amp;amp; Div Issue Queue&lt;/b&gt;" style="rounded=0;whiteSpace=wrap;html=1;fillColor=#f8cecc;strokeColor=#000000;fontSize=16;" parent="1" vertex="1">
                    <mxGeometry x="-480" y="1140" width="241" height="40" as="geometry"/>
                </mxCell>
                <mxCell id="pp8-QFKgKfyrIBCOwYfq-135" style="edgeStyle=orthogonalEdgeStyle;rounded=0;orthogonalLoop=1;jettySize=auto;html=1;exitX=1;exitY=0.5;exitDx=0;exitDy=0;entryX=0;entryY=0.5;entryDx=0;entryDy=0;strokeColor=#000000;" parent="1" source="pp8-QFKgKfyrIBCOwYfq-104" target="pp8-QFKgKfyrIBCOwYfq-123" edge="1">
                    <mxGeometry relative="1" as="geometry">
                        <Array as="points">
                            <mxPoint x="-220" y="1400"/>
                            <mxPoint x="-220" y="1360"/>
                        </Array>
                    </mxGeometry>
                </mxCell>
                <mxCell id="pp8-QFKgKfyrIBCOwYfq-104" value="&lt;b style=&quot;font-size: 16px;&quot;&gt;Load &amp;amp; Store Issue Quue&lt;/b&gt;" style="rounded=0;whiteSpace=wrap;html=1;fillColor=#f8cecc;strokeColor=#000000;fontSize=16;" parent="1" vertex="1">
                    <mxGeometry x="-480" y="1380" width="241" height="40" as="geometry"/>
                </mxCell>
                <mxCell id="pp8-QFKgKfyrIBCOwYfq-105" value="&lt;font style=&quot;font-size: 16px;&quot;&gt;&lt;b style=&quot;font-size: 16px;&quot;&gt;Busy Board&lt;/b&gt;&lt;/font&gt;" style="rounded=1;whiteSpace=wrap;html=1;fillColor=#b1ddf0;strokeColor=#000000;fontSize=16;" parent="1" vertex="1">
                    <mxGeometry x="-770" y="1052" width="89" height="95" as="geometry"/>
                </mxCell>
                <mxCell id="pp8-QFKgKfyrIBCOwYfq-128" style="edgeStyle=orthogonalEdgeStyle;rounded=0;orthogonalLoop=1;jettySize=auto;html=1;exitX=0.5;exitY=0;exitDx=0;exitDy=0;entryX=0.75;entryY=0;entryDx=0;entryDy=0;strokeColor=#000000;" parent="1" source="pp8-QFKgKfyrIBCOwYfq-120" target="pp8-QFKgKfyrIBCOwYfq-101" edge="1">
                    <mxGeometry relative="1" as="geometry"/>
                </mxCell>
                <mxCell id="pp8-QFKgKfyrIBCOwYfq-164" style="edgeStyle=orthogonalEdgeStyle;rounded=0;orthogonalLoop=1;jettySize=auto;html=1;exitX=1;exitY=0.5;exitDx=0;exitDy=0;entryX=0;entryY=0.5;entryDx=0;entryDy=0;strokeColor=#000000;" parent="1" source="pp8-QFKgKfyrIBCOwYfq-120" target="pp8-QFKgKfyrIBCOwYfq-152" edge="1">
                    <mxGeometry relative="1" as="geometry"/>
                </mxCell>
                <mxCell id="pp8-QFKgKfyrIBCOwYfq-120" value="Unorder Select" style="rounded=1;whiteSpace=wrap;html=1;fontStyle=1;fillColor=#ffe6cc;strokeColor=#000000;fontSize=16;" parent="1" vertex="1">
                    <mxGeometry x="-160" y="640.5" width="120" height="79" as="geometry"/>
                </mxCell>
                <mxCell id="pp8-QFKgKfyrIBCOwYfq-130" style="edgeStyle=orthogonalEdgeStyle;rounded=0;orthogonalLoop=1;jettySize=auto;html=1;exitX=0.5;exitY=0;exitDx=0;exitDy=0;entryX=0.75;entryY=0;entryDx=0;entryDy=0;strokeColor=#000000;" parent="1" source="pp8-QFKgKfyrIBCOwYfq-121" target="pp8-QFKgKfyrIBCOwYfq-102" edge="1">
                    <mxGeometry relative="1" as="geometry"/>
                </mxCell>
                <mxCell id="pp8-QFKgKfyrIBCOwYfq-165" style="edgeStyle=orthogonalEdgeStyle;rounded=0;orthogonalLoop=1;jettySize=auto;html=1;exitX=1;exitY=0.5;exitDx=0;exitDy=0;entryX=0;entryY=0.5;entryDx=0;entryDy=0;strokeColor=#000000;" parent="1" source="pp8-QFKgKfyrIBCOwYfq-121" target="pp8-QFKgKfyrIBCOwYfq-155" edge="1">
                    <mxGeometry relative="1" as="geometry"/>
                </mxCell>
                <mxCell id="pp8-QFKgKfyrIBCOwYfq-121" value="Unorder Select" style="rounded=1;whiteSpace=wrap;html=1;fontStyle=1;fillColor=#ffe6cc;strokeColor=#000000;fontSize=16;" parent="1" vertex="1">
                    <mxGeometry x="-160" y="880.5" width="120" height="79" as="geometry"/>
                </mxCell>
                <mxCell id="pp8-QFKgKfyrIBCOwYfq-132" style="edgeStyle=orthogonalEdgeStyle;rounded=0;orthogonalLoop=1;jettySize=auto;html=1;exitX=0.5;exitY=0;exitDx=0;exitDy=0;entryX=0.75;entryY=0;entryDx=0;entryDy=0;strokeColor=#000000;" parent="1" source="pp8-QFKgKfyrIBCOwYfq-122" target="pp8-QFKgKfyrIBCOwYfq-103" edge="1">
                    <mxGeometry relative="1" as="geometry"/>
                </mxCell>
                <mxCell id="pp8-QFKgKfyrIBCOwYfq-166" style="edgeStyle=orthogonalEdgeStyle;rounded=0;orthogonalLoop=1;jettySize=auto;html=1;exitX=1;exitY=0.5;exitDx=0;exitDy=0;strokeColor=#000000;" parent="1" source="pp8-QFKgKfyrIBCOwYfq-122" target="pp8-QFKgKfyrIBCOwYfq-158" edge="1">
                    <mxGeometry relative="1" as="geometry"/>
                </mxCell>
                <mxCell id="pp8-QFKgKfyrIBCOwYfq-122" value="Order Select" style="rounded=1;whiteSpace=wrap;html=1;fontStyle=1;fillColor=#ffe6cc;strokeColor=#000000;fontSize=16;" parent="1" vertex="1">
                    <mxGeometry x="-159" y="1120.5" width="120" height="79" as="geometry"/>
                </mxCell>
                <mxCell id="pp8-QFKgKfyrIBCOwYfq-134" style="edgeStyle=orthogonalEdgeStyle;rounded=0;orthogonalLoop=1;jettySize=auto;html=1;exitX=0.5;exitY=0;exitDx=0;exitDy=0;entryX=0.75;entryY=0;entryDx=0;entryDy=0;strokeColor=#000000;" parent="1" source="pp8-QFKgKfyrIBCOwYfq-123" target="pp8-QFKgKfyrIBCOwYfq-104" edge="1">
                    <mxGeometry relative="1" as="geometry"/>
                </mxCell>
                <mxCell id="-GU3EejLwVTsNvYZy9xl-7" value="" style="edgeStyle=orthogonalEdgeStyle;rounded=0;orthogonalLoop=1;jettySize=auto;html=1;strokeColor=#000000;" parent="1" source="pp8-QFKgKfyrIBCOwYfq-123" edge="1">
                    <mxGeometry relative="1" as="geometry">
                        <mxPoint x="40" y="1360" as="targetPoint"/>
                    </mxGeometry>
                </mxCell>
                <mxCell id="pp8-QFKgKfyrIBCOwYfq-123" value="Order Select" style="rounded=1;whiteSpace=wrap;html=1;fontStyle=1;fillColor=#ffe6cc;strokeColor=#000000;fontSize=16;" parent="1" vertex="1">
                    <mxGeometry x="-160" y="1320.5" width="120" height="79" as="geometry"/>
                </mxCell>
                <mxCell id="pp8-QFKgKfyrIBCOwYfq-138" value="req" style="text;html=1;align=center;verticalAlign=middle;resizable=0;points=[];autosize=1;strokeColor=#000000;fillColor=none;fontStyle=1;fontSize=14;" parent="1" vertex="1">
                    <mxGeometry x="-223" y="654" width="50" height="30" as="geometry"/>
                </mxCell>
                <mxCell id="pp8-QFKgKfyrIBCOwYfq-139" value="ack" style="text;html=1;align=center;verticalAlign=middle;resizable=0;points=[];autosize=1;strokeColor=#000000;fillColor=none;fontStyle=1;fontSize=14;" parent="1" vertex="1">
                    <mxGeometry x="-224" y="594" width="50" height="30" as="geometry"/>
                </mxCell>
                <mxCell id="pp8-QFKgKfyrIBCOwYfq-140" value="req" style="text;html=1;align=center;verticalAlign=middle;resizable=0;points=[];autosize=1;strokeColor=#000000;fillColor=none;fontStyle=1;fontSize=14;" parent="1" vertex="1">
                    <mxGeometry x="-225" y="896" width="50" height="30" as="geometry"/>
                </mxCell>
                <mxCell id="pp8-QFKgKfyrIBCOwYfq-141" value="ack" style="text;html=1;align=center;verticalAlign=middle;resizable=0;points=[];autosize=1;strokeColor=#000000;fillColor=none;fontStyle=1;fontSize=14;" parent="1" vertex="1">
                    <mxGeometry x="-226" y="836" width="50" height="30" as="geometry"/>
                </mxCell>
                <mxCell id="pp8-QFKgKfyrIBCOwYfq-142" value="req" style="text;html=1;align=center;verticalAlign=middle;resizable=0;points=[];autosize=1;strokeColor=#000000;fillColor=none;fontStyle=1;fontSize=14;" parent="1" vertex="1">
                    <mxGeometry x="-222" y="1137" width="50" height="30" as="geometry"/>
                </mxCell>
                <mxCell id="pp8-QFKgKfyrIBCOwYfq-143" value="ack" style="text;html=1;align=center;verticalAlign=middle;resizable=0;points=[];autosize=1;strokeColor=#000000;fillColor=none;fontStyle=1;fontSize=14;" parent="1" vertex="1">
                    <mxGeometry x="-223" y="1077" width="50" height="30" as="geometry"/>
                </mxCell>
                <mxCell id="pp8-QFKgKfyrIBCOwYfq-144" value="req" style="text;html=1;align=center;verticalAlign=middle;resizable=0;points=[];autosize=1;strokeColor=#000000;fillColor=none;fontStyle=1;fontSize=14;" parent="1" vertex="1">
                    <mxGeometry x="-224" y="1330.5" width="50" height="30" as="geometry"/>
                </mxCell>
                <mxCell id="pp8-QFKgKfyrIBCOwYfq-145" value="ack" style="text;html=1;align=center;verticalAlign=middle;resizable=0;points=[];autosize=1;strokeColor=#000000;fillColor=none;fontStyle=1;fontSize=14;" parent="1" vertex="1">
                    <mxGeometry x="-222" y="1277" width="50" height="30" as="geometry"/>
                </mxCell>
                <mxCell id="pp8-QFKgKfyrIBCOwYfq-151" value="" style="group;strokeColor=#000000;" parent="1" vertex="1" connectable="0">
                    <mxGeometry x="40" y="600" width="40" height="160" as="geometry"/>
                </mxCell>
                <mxCell id="pp8-QFKgKfyrIBCOwYfq-152" value="" style="rounded=0;whiteSpace=wrap;html=1;fillColor=#f5f5f5;fontColor=#333333;strokeColor=#000000;" parent="pp8-QFKgKfyrIBCOwYfq-151" vertex="1">
                    <mxGeometry width="40" height="160" as="geometry"/>
                </mxCell>
                <mxCell id="pp8-QFKgKfyrIBCOwYfq-153" value="" style="triangle;whiteSpace=wrap;html=1;rotation=-90;fillColor=#647687;fontColor=#ffffff;strokeColor=#000000;" parent="pp8-QFKgKfyrIBCOwYfq-151" vertex="1">
                    <mxGeometry y="120" width="40" height="40" as="geometry"/>
                </mxCell>
                <mxCell id="pp8-QFKgKfyrIBCOwYfq-154" value="" style="group;strokeColor=#000000;" parent="1" vertex="1" connectable="0">
                    <mxGeometry x="40" y="840" width="40" height="160" as="geometry"/>
                </mxCell>
                <mxCell id="pp8-QFKgKfyrIBCOwYfq-155" value="" style="rounded=0;whiteSpace=wrap;html=1;fillColor=#f5f5f5;fontColor=#333333;strokeColor=#000000;" parent="pp8-QFKgKfyrIBCOwYfq-154" vertex="1">
                    <mxGeometry width="40" height="160" as="geometry"/>
                </mxCell>
                <mxCell id="pp8-QFKgKfyrIBCOwYfq-156" value="" style="triangle;whiteSpace=wrap;html=1;rotation=-90;fillColor=#647687;fontColor=#ffffff;strokeColor=#000000;" parent="pp8-QFKgKfyrIBCOwYfq-154" vertex="1">
                    <mxGeometry y="120" width="40" height="40" as="geometry"/>
                </mxCell>
                <mxCell id="pp8-QFKgKfyrIBCOwYfq-157" value="" style="group;strokeColor=#000000;" parent="1" vertex="1" connectable="0">
                    <mxGeometry x="40" y="1080" width="40" height="160" as="geometry"/>
                </mxCell>
                <mxCell id="pp8-QFKgKfyrIBCOwYfq-158" value="" style="rounded=0;whiteSpace=wrap;html=1;fillColor=#f5f5f5;fontColor=#333333;strokeColor=#000000;" parent="pp8-QFKgKfyrIBCOwYfq-157" vertex="1">
                    <mxGeometry width="40" height="160" as="geometry"/>
                </mxCell>
                <mxCell id="pp8-QFKgKfyrIBCOwYfq-159" value="" style="triangle;whiteSpace=wrap;html=1;rotation=-90;fillColor=#647687;fontColor=#ffffff;strokeColor=#000000;" parent="pp8-QFKgKfyrIBCOwYfq-157" vertex="1">
                    <mxGeometry y="120" width="40" height="40" as="geometry"/>
                </mxCell>
                <mxCell id="pp8-QFKgKfyrIBCOwYfq-160" value="" style="group;strokeColor=#000000;" parent="1" vertex="1" connectable="0">
                    <mxGeometry x="40" y="1320.5" width="40" height="160" as="geometry"/>
                </mxCell>
                <mxCell id="pp8-QFKgKfyrIBCOwYfq-161" value="" style="rounded=0;whiteSpace=wrap;html=1;fillColor=#f5f5f5;fontColor=#333333;strokeColor=#000000;" parent="pp8-QFKgKfyrIBCOwYfq-160" vertex="1">
                    <mxGeometry width="40" height="160" as="geometry"/>
                </mxCell>
                <mxCell id="pp8-QFKgKfyrIBCOwYfq-162" value="" style="triangle;whiteSpace=wrap;html=1;rotation=-90;fillColor=#647687;fontColor=#ffffff;strokeColor=#000000;" parent="pp8-QFKgKfyrIBCOwYfq-160" vertex="1">
                    <mxGeometry y="120" width="40" height="40" as="geometry"/>
                </mxCell>
                <mxCell id="pp8-QFKgKfyrIBCOwYfq-205" style="edgeStyle=orthogonalEdgeStyle;rounded=0;orthogonalLoop=1;jettySize=auto;html=1;exitX=1;exitY=0.5;exitDx=0;exitDy=0;entryX=0;entryY=0.5;entryDx=0;entryDy=0;strokeColor=#000000;" parent="1" source="pp8-QFKgKfyrIBCOwYfq-180" target="pp8-QFKgKfyrIBCOwYfq-195" edge="1">
                    <mxGeometry relative="1" as="geometry"/>
                </mxCell>
                <mxCell id="pp8-QFKgKfyrIBCOwYfq-180" value="&lt;b style=&quot;font-size: 16px;&quot;&gt;RegFile Read&lt;/b&gt;" style="rounded=1;whiteSpace=wrap;html=1;fillColor=#fff2cc;strokeColor=#000000;fontSize=16;gradientColor=none;" parent="1" vertex="1">
                    <mxGeometry x="160" y="880" width="160" height="80" as="geometry"/>
                </mxCell>
                <mxCell id="-GU3EejLwVTsNvYZy9xl-8" value="" style="edgeStyle=orthogonalEdgeStyle;rounded=0;orthogonalLoop=1;jettySize=auto;html=1;entryX=-0.015;entryY=0.746;entryDx=0;entryDy=0;entryPerimeter=0;strokeColor=#000000;" parent="1" source="pp8-QFKgKfyrIBCOwYfq-182" target="pp8-QFKgKfyrIBCOwYfq-161" edge="1">
                    <mxGeometry relative="1" as="geometry"/>
                </mxCell>
                <mxCell id="pp8-QFKgKfyrIBCOwYfq-182" value="&lt;b style=&quot;font-size: 16px;&quot;&gt;RegFile Read&lt;/b&gt;" style="rounded=1;whiteSpace=wrap;html=1;fillColor=#fff2cc;strokeColor=#000000;fontSize=16;" parent="1" vertex="1">
                    <mxGeometry x="-160" y="1399.5" width="120" height="80" as="geometry"/>
                </mxCell>
                <mxCell id="pp8-QFKgKfyrIBCOwYfq-185" style="edgeStyle=orthogonalEdgeStyle;rounded=0;orthogonalLoop=1;jettySize=auto;html=1;exitX=1;exitY=0.5;exitDx=0;exitDy=0;entryX=0;entryY=0.5;entryDx=0;entryDy=0;strokeColor=#000000;" parent="1" source="pp8-QFKgKfyrIBCOwYfq-155" target="pp8-QFKgKfyrIBCOwYfq-180" edge="1">
                    <mxGeometry relative="1" as="geometry"/>
                </mxCell>
                <mxCell id="pp8-QFKgKfyrIBCOwYfq-191" value="" style="group;strokeColor=#000000;" parent="1" vertex="1" connectable="0">
                    <mxGeometry x="400" y="600.5" width="40" height="160" as="geometry"/>
                </mxCell>
                <mxCell id="pp8-QFKgKfyrIBCOwYfq-192" value="" style="rounded=0;whiteSpace=wrap;html=1;fillColor=#f5f5f5;fontColor=#333333;strokeColor=#000000;" parent="pp8-QFKgKfyrIBCOwYfq-191" vertex="1">
                    <mxGeometry width="40" height="160" as="geometry"/>
                </mxCell>
                <mxCell id="pp8-QFKgKfyrIBCOwYfq-193" value="" style="triangle;whiteSpace=wrap;html=1;rotation=-90;fillColor=#647687;fontColor=#ffffff;strokeColor=#000000;" parent="pp8-QFKgKfyrIBCOwYfq-191" vertex="1">
                    <mxGeometry y="120" width="40" height="40" as="geometry"/>
                </mxCell>
                <mxCell id="pp8-QFKgKfyrIBCOwYfq-194" value="" style="group;strokeColor=#000000;" parent="1" vertex="1" connectable="0">
                    <mxGeometry x="400" y="840" width="40" height="160" as="geometry"/>
                </mxCell>
                <mxCell id="pp8-QFKgKfyrIBCOwYfq-195" value="" style="rounded=0;whiteSpace=wrap;html=1;fillColor=#f5f5f5;fontColor=#333333;strokeColor=#000000;" parent="pp8-QFKgKfyrIBCOwYfq-194" vertex="1">
                    <mxGeometry width="40" height="160" as="geometry"/>
                </mxCell>
                <mxCell id="pp8-QFKgKfyrIBCOwYfq-196" value="" style="triangle;whiteSpace=wrap;html=1;rotation=-90;fillColor=#647687;fontColor=#ffffff;strokeColor=#000000;" parent="pp8-QFKgKfyrIBCOwYfq-194" vertex="1">
                    <mxGeometry y="120" width="40" height="40" as="geometry"/>
                </mxCell>
                <mxCell id="pp8-QFKgKfyrIBCOwYfq-197" value="" style="group;strokeColor=#000000;" parent="1" vertex="1" connectable="0">
                    <mxGeometry x="400" y="1080" width="40" height="160" as="geometry"/>
                </mxCell>
                <mxCell id="pp8-QFKgKfyrIBCOwYfq-244" style="edgeStyle=orthogonalEdgeStyle;rounded=0;orthogonalLoop=1;jettySize=auto;html=1;exitX=1;exitY=0.5;exitDx=0;exitDy=0;strokeColor=#000000;" parent="pp8-QFKgKfyrIBCOwYfq-197" source="pp8-QFKgKfyrIBCOwYfq-198" edge="1">
                    <mxGeometry relative="1" as="geometry">
                        <mxPoint x="40.13793103448279" y="80.24137931034488" as="targetPoint"/>
                    </mxGeometry>
                </mxCell>
                <mxCell id="pp8-QFKgKfyrIBCOwYfq-198" value="" style="rounded=0;whiteSpace=wrap;html=1;fillColor=#f5f5f5;fontColor=#333333;strokeColor=#000000;" parent="pp8-QFKgKfyrIBCOwYfq-197" vertex="1">
                    <mxGeometry width="40" height="160" as="geometry"/>
                </mxCell>
                <mxCell id="pp8-QFKgKfyrIBCOwYfq-199" value="" style="triangle;whiteSpace=wrap;html=1;rotation=-90;fillColor=#647687;fontColor=#ffffff;strokeColor=#000000;" parent="pp8-QFKgKfyrIBCOwYfq-197" vertex="1">
                    <mxGeometry y="120" width="40" height="40" as="geometry"/>
                </mxCell>
                <mxCell id="pp8-QFKgKfyrIBCOwYfq-200" value="" style="group;strokeColor=#000000;" parent="1" vertex="1" connectable="0">
                    <mxGeometry x="400" y="1320" width="40" height="160" as="geometry"/>
                </mxCell>
                <mxCell id="pp8-QFKgKfyrIBCOwYfq-201" value="" style="rounded=0;whiteSpace=wrap;html=1;fillColor=#f5f5f5;fontColor=#333333;strokeColor=#000000;" parent="pp8-QFKgKfyrIBCOwYfq-200" vertex="1">
                    <mxGeometry width="40" height="160" as="geometry"/>
                </mxCell>
                <mxCell id="pp8-QFKgKfyrIBCOwYfq-202" value="" style="triangle;whiteSpace=wrap;html=1;rotation=-90;fillColor=#647687;fontColor=#ffffff;strokeColor=#000000;" parent="pp8-QFKgKfyrIBCOwYfq-200" vertex="1">
                    <mxGeometry y="120" width="40" height="40" as="geometry"/>
                </mxCell>
                <mxCell id="pp8-QFKgKfyrIBCOwYfq-225" style="edgeStyle=orthogonalEdgeStyle;rounded=0;orthogonalLoop=1;jettySize=auto;html=1;exitX=0.5;exitY=0;exitDx=0;exitDy=0;strokeColor=#000000;" parent="1" source="pp8-QFKgKfyrIBCOwYfq-226" edge="1">
                    <mxGeometry relative="1" as="geometry">
                        <mxPoint x="679.5" y="680" as="targetPoint"/>
                        <Array as="points"/>
                    </mxGeometry>
                </mxCell>
                <mxCell id="pp8-QFKgKfyrIBCOwYfq-226" value="&lt;b style=&quot;font-size: 16px;&quot;&gt;ALU&lt;/b&gt;" style="shape=trapezoid;perimeter=trapezoidPerimeter;whiteSpace=wrap;html=1;fixedSize=1;rotation=0;fillColor=#e1d5e7;strokeColor=#000000;direction=south;fontSize=16;" parent="1" vertex="1">
                    <mxGeometry x="519.5" y="600" width="60" height="160" as="geometry"/>
                </mxCell>
                <mxCell id="pp8-QFKgKfyrIBCOwYfq-227" style="edgeStyle=orthogonalEdgeStyle;rounded=0;orthogonalLoop=1;jettySize=auto;html=1;strokeColor=#000000;" parent="1" edge="1">
                    <mxGeometry relative="1" as="geometry">
                        <mxPoint x="440" y="640" as="sourcePoint"/>
                        <mxPoint x="520" y="640" as="targetPoint"/>
                    </mxGeometry>
                </mxCell>
                <mxCell id="pp8-QFKgKfyrIBCOwYfq-228" style="edgeStyle=orthogonalEdgeStyle;rounded=0;orthogonalLoop=1;jettySize=auto;html=1;exitX=1;exitY=0.75;exitDx=0;exitDy=0;entryX=0.75;entryY=1;entryDx=0;entryDy=0;strokeColor=#000000;" parent="1" edge="1">
                    <mxGeometry relative="1" as="geometry">
                        <mxPoint x="440.5" y="720" as="sourcePoint"/>
                        <mxPoint x="519.5" y="720" as="targetPoint"/>
                        <Array as="points">
                            <mxPoint x="460" y="720"/>
                            <mxPoint x="460" y="720"/>
                        </Array>
                    </mxGeometry>
                </mxCell>
                <mxCell id="pp8-QFKgKfyrIBCOwYfq-238" style="edgeStyle=orthogonalEdgeStyle;rounded=0;orthogonalLoop=1;jettySize=auto;html=1;exitX=0.5;exitY=0;exitDx=0;exitDy=0;strokeColor=#000000;" parent="1" source="pp8-QFKgKfyrIBCOwYfq-232" edge="1">
                    <mxGeometry relative="1" as="geometry">
                        <mxPoint x="679.9999999999995" y="880.2413793103449" as="targetPoint"/>
                    </mxGeometry>
                </mxCell>
                <mxCell id="pp8-QFKgKfyrIBCOwYfq-232" value="&lt;b style=&quot;font-size: 16px;&quot;&gt;ALU&lt;/b&gt;" style="shape=trapezoid;perimeter=trapezoidPerimeter;whiteSpace=wrap;html=1;fixedSize=1;rotation=0;fillColor=#e1d5e7;strokeColor=#000000;direction=south;fontSize=16;" parent="1" vertex="1">
                    <mxGeometry x="560" y="840" width="40" height="80" as="geometry"/>
                </mxCell>
                <mxCell id="pp8-QFKgKfyrIBCOwYfq-239" style="edgeStyle=orthogonalEdgeStyle;rounded=0;orthogonalLoop=1;jettySize=auto;html=1;exitX=1;exitY=0.5;exitDx=0;exitDy=0;strokeColor=#000000;" parent="1" edge="1">
                    <mxGeometry relative="1" as="geometry">
                        <mxPoint x="680" y="965" as="targetPoint"/>
                        <Array as="points">
                            <mxPoint x="680" y="965"/>
                        </Array>
                        <mxPoint x="610" y="965" as="sourcePoint"/>
                    </mxGeometry>
                </mxCell>
                <mxCell id="pp8-QFKgKfyrIBCOwYfq-233" value="&lt;b style=&quot;font-size: 16px;&quot;&gt;Branch&lt;/b&gt;" style="whiteSpace=wrap;html=1;aspect=fixed;fillColor=#d5e8d4;strokeColor=#000000;fontSize=16;" parent="1" vertex="1">
                    <mxGeometry x="540" y="931" width="70" height="70" as="geometry"/>
                </mxCell>
                <mxCell id="pp8-QFKgKfyrIBCOwYfq-234" style="edgeStyle=orthogonalEdgeStyle;rounded=0;orthogonalLoop=1;jettySize=auto;html=1;exitX=1;exitY=0.25;exitDx=0;exitDy=0;entryX=0.25;entryY=1;entryDx=0;entryDy=0;strokeColor=#000000;" parent="1" target="pp8-QFKgKfyrIBCOwYfq-232" edge="1">
                    <mxGeometry relative="1" as="geometry">
                        <Array as="points">
                            <mxPoint x="450" y="880"/>
                            <mxPoint x="450" y="860"/>
                        </Array>
                        <mxPoint x="440" y="879.0000000000002" as="sourcePoint"/>
                    </mxGeometry>
                </mxCell>
                <mxCell id="pp8-QFKgKfyrIBCOwYfq-235" style="edgeStyle=orthogonalEdgeStyle;rounded=0;orthogonalLoop=1;jettySize=auto;html=1;exitX=1;exitY=0.75;exitDx=0;exitDy=0;entryX=0.75;entryY=1;entryDx=0;entryDy=0;strokeColor=#000000;" parent="1" target="pp8-QFKgKfyrIBCOwYfq-232" edge="1">
                    <mxGeometry relative="1" as="geometry">
                        <Array as="points">
                            <mxPoint x="470" y="960"/>
                            <mxPoint x="470" y="900"/>
                        </Array>
                        <mxPoint x="440" y="959.0000000000002" as="sourcePoint"/>
                    </mxGeometry>
                </mxCell>
                <mxCell id="pp8-QFKgKfyrIBCOwYfq-236" style="edgeStyle=orthogonalEdgeStyle;rounded=0;orthogonalLoop=1;jettySize=auto;html=1;exitX=1;exitY=0.25;exitDx=0;exitDy=0;entryX=0;entryY=0.25;entryDx=0;entryDy=0;strokeColor=#000000;" parent="1" edge="1">
                    <mxGeometry relative="1" as="geometry">
                        <Array as="points">
                            <mxPoint x="450" y="880"/>
                            <mxPoint x="450" y="948"/>
                            <mxPoint x="540" y="948"/>
                        </Array>
                        <mxPoint x="440" y="879.0000000000002" as="sourcePoint"/>
                        <mxPoint x="540" y="947.5" as="targetPoint"/>
                    </mxGeometry>
                </mxCell>
                <mxCell id="pp8-QFKgKfyrIBCOwYfq-237" style="edgeStyle=orthogonalEdgeStyle;rounded=0;orthogonalLoop=1;jettySize=auto;html=1;exitX=1;exitY=0.75;exitDx=0;exitDy=0;entryX=0;entryY=0.75;entryDx=0;entryDy=0;strokeColor=#000000;" parent="1" edge="1">
                    <mxGeometry relative="1" as="geometry">
                        <Array as="points">
                            <mxPoint x="470" y="960"/>
                            <mxPoint x="470" y="983"/>
                            <mxPoint x="540" y="983"/>
                        </Array>
                        <mxPoint x="440" y="959.0000000000002" as="sourcePoint"/>
                        <mxPoint x="540" y="982.5" as="targetPoint"/>
                    </mxGeometry>
                </mxCell>
                <mxCell id="pp8-QFKgKfyrIBCOwYfq-240" value="" style="group;strokeColor=#000000;" parent="1" vertex="1" connectable="0">
                    <mxGeometry x="680" y="840" width="40" height="160" as="geometry"/>
                </mxCell>
                <mxCell id="pp8-QFKgKfyrIBCOwYfq-241" value="" style="rounded=0;whiteSpace=wrap;html=1;fillColor=#f5f5f5;fontColor=#333333;strokeColor=#000000;" parent="pp8-QFKgKfyrIBCOwYfq-240" vertex="1">
                    <mxGeometry width="40" height="160" as="geometry"/>
                </mxCell>
                <mxCell id="pp8-QFKgKfyrIBCOwYfq-242" value="" style="triangle;whiteSpace=wrap;html=1;rotation=-90;fillColor=#647687;fontColor=#ffffff;strokeColor=#000000;" parent="pp8-QFKgKfyrIBCOwYfq-240" vertex="1">
                    <mxGeometry y="120" width="40" height="40" as="geometry"/>
                </mxCell>
                <mxCell id="pp8-QFKgKfyrIBCOwYfq-245" style="edgeStyle=orthogonalEdgeStyle;rounded=0;orthogonalLoop=1;jettySize=auto;html=1;exitX=1;exitY=0.25;exitDx=0;exitDy=0;entryX=-0.014;entryY=0.345;entryDx=0;entryDy=0;entryPerimeter=0;strokeColor=#000000;" parent="1" source="pp8-QFKgKfyrIBCOwYfq-198" target="A1JoY7GcFFuIIpcnc2Ma-21" edge="1">
                    <mxGeometry relative="1" as="geometry">
                        <mxPoint x="480" y="1120" as="targetPoint"/>
                    </mxGeometry>
                </mxCell>
                <mxCell id="pp8-QFKgKfyrIBCOwYfq-246" style="edgeStyle=orthogonalEdgeStyle;rounded=0;orthogonalLoop=1;jettySize=auto;html=1;entryX=-0.025;entryY=0.671;entryDx=0;entryDy=0;entryPerimeter=0;exitX=1.011;exitY=0.753;exitDx=0;exitDy=0;exitPerimeter=0;strokeColor=#000000;" parent="1" source="pp8-QFKgKfyrIBCOwYfq-198" target="A1JoY7GcFFuIIpcnc2Ma-21" edge="1">
                    <mxGeometry relative="1" as="geometry">
                        <mxPoint x="450" y="1190" as="sourcePoint"/>
                        <mxPoint x="480" y="1200" as="targetPoint"/>
                        <Array as="points">
                            <mxPoint x="490" y="1201"/>
                            <mxPoint x="490" y="1110"/>
                        </Array>
                    </mxGeometry>
                </mxCell>
                <mxCell id="pp8-QFKgKfyrIBCOwYfq-251" value="" style="group;strokeColor=#000000;" parent="1" vertex="1" connectable="0">
                    <mxGeometry x="680" y="1320" width="40" height="160" as="geometry"/>
                </mxCell>
                <mxCell id="pp8-QFKgKfyrIBCOwYfq-252" value="" style="rounded=0;whiteSpace=wrap;html=1;fillColor=#f5f5f5;fontColor=#333333;strokeColor=#000000;" parent="pp8-QFKgKfyrIBCOwYfq-251" vertex="1">
                    <mxGeometry width="40" height="160" as="geometry"/>
                </mxCell>
                <mxCell id="pp8-QFKgKfyrIBCOwYfq-253" value="" style="triangle;whiteSpace=wrap;html=1;rotation=-90;fillColor=#647687;fontColor=#ffffff;strokeColor=#000000;" parent="pp8-QFKgKfyrIBCOwYfq-251" vertex="1">
                    <mxGeometry y="120" width="40" height="40" as="geometry"/>
                </mxCell>
                <mxCell id="pp8-QFKgKfyrIBCOwYfq-267" style="edgeStyle=orthogonalEdgeStyle;rounded=0;orthogonalLoop=1;jettySize=auto;html=1;exitX=0.25;exitY=0;exitDx=0;exitDy=0;entryX=0;entryY=0.75;entryDx=0;entryDy=0;fontStyle=0;strokeColor=#000000;" parent="1" source="pp8-QFKgKfyrIBCOwYfq-259" target="pp8-QFKgKfyrIBCOwYfq-201" edge="1">
                    <mxGeometry relative="1" as="geometry">
                        <Array as="points">
                            <mxPoint x="350" y="1440"/>
                        </Array>
                    </mxGeometry>
                </mxCell>
                <mxCell id="pp8-QFKgKfyrIBCOwYfq-259" value="&lt;b style=&quot;font-size: 18px;&quot;&gt;Store Buffer&lt;/b&gt;" style="rounded=1;whiteSpace=wrap;html=1;fillColor=#d0cee2;strokeColor=#000000;fontSize=18;" parent="1" vertex="1">
                    <mxGeometry x="320" y="1520" width="450" height="40" as="geometry"/>
                </mxCell>
                <mxCell id="pp8-QFKgKfyrIBCOwYfq-264" style="edgeStyle=orthogonalEdgeStyle;rounded=0;orthogonalLoop=1;jettySize=auto;html=1;exitX=1;exitY=0.5;exitDx=0;exitDy=0;entryX=0;entryY=0.75;entryDx=0;entryDy=0;strokeColor=#000000;" parent="1" source="pp8-QFKgKfyrIBCOwYfq-260" target="pp8-QFKgKfyrIBCOwYfq-252" edge="1">
                    <mxGeometry relative="1" as="geometry"/>
                </mxCell>
                <mxCell id="pp8-QFKgKfyrIBCOwYfq-266" style="edgeStyle=orthogonalEdgeStyle;rounded=0;orthogonalLoop=1;jettySize=auto;html=1;exitX=1;exitY=0.794;exitDx=0;exitDy=0;fontStyle=1;exitPerimeter=0;strokeColor=#000000;" parent="1" source="pp8-QFKgKfyrIBCOwYfq-252" target="pp8-QFKgKfyrIBCOwYfq-259" edge="1">
                    <mxGeometry relative="1" as="geometry">
                        <Array as="points">
                            <mxPoint x="740" y="1447"/>
                        </Array>
                    </mxGeometry>
                </mxCell>
                <mxCell id="pp8-QFKgKfyrIBCOwYfq-260" value="&lt;b style=&quot;font-size: 16px;&quot;&gt;DCache&lt;br style=&quot;font-size: 16px;&quot;&gt;Tag Table&lt;br style=&quot;font-size: 16px;&quot;&gt;&lt;/b&gt;" style="rounded=1;whiteSpace=wrap;html=1;fillColor=#fad9d5;strokeColor=#000000;fontSize=16;" parent="1" vertex="1">
                    <mxGeometry x="480" y="1400" width="160" height="80" as="geometry"/>
                </mxCell>
                <mxCell id="pp8-QFKgKfyrIBCOwYfq-276" style="edgeStyle=orthogonalEdgeStyle;rounded=0;orthogonalLoop=1;jettySize=auto;html=1;exitX=1;exitY=0.5;exitDx=0;exitDy=0;entryX=0;entryY=0.5;entryDx=0;entryDy=0;strokeColor=#000000;" parent="1" source="pp8-QFKgKfyrIBCOwYfq-261" target="pp8-QFKgKfyrIBCOwYfq-274" edge="1">
                    <mxGeometry relative="1" as="geometry"/>
                </mxCell>
                <mxCell id="pp8-QFKgKfyrIBCOwYfq-261" value="&lt;b style=&quot;font-size: 16px;&quot;&gt;DCache&lt;br style=&quot;font-size: 16px;&quot;&gt;Data Table&lt;br style=&quot;font-size: 16px;&quot;&gt;&lt;/b&gt;" style="rounded=1;whiteSpace=wrap;html=1;fillColor=#fad9d5;strokeColor=#000000;fontSize=16;" parent="1" vertex="1">
                    <mxGeometry x="760" y="1359.5" width="160" height="80" as="geometry"/>
                </mxCell>
                <mxCell id="pp8-QFKgKfyrIBCOwYfq-263" style="edgeStyle=orthogonalEdgeStyle;rounded=0;orthogonalLoop=1;jettySize=auto;html=1;exitX=1;exitY=0.75;exitDx=0;exitDy=0;entryX=0;entryY=0.5;entryDx=0;entryDy=0;strokeColor=#000000;" parent="1" source="pp8-QFKgKfyrIBCOwYfq-201" target="pp8-QFKgKfyrIBCOwYfq-260" edge="1">
                    <mxGeometry relative="1" as="geometry"/>
                </mxCell>
                <mxCell id="pp8-QFKgKfyrIBCOwYfq-323" style="edgeStyle=orthogonalEdgeStyle;rounded=0;orthogonalLoop=1;jettySize=auto;html=1;exitX=1;exitY=0.5;exitDx=0;exitDy=0;entryX=0;entryY=0.25;entryDx=0;entryDy=0;strokeColor=#000000;" parent="1" source="pp8-QFKgKfyrIBCOwYfq-265" target="pp8-QFKgKfyrIBCOwYfq-252" edge="1">
                    <mxGeometry relative="1" as="geometry"/>
                </mxCell>
                <mxCell id="pp8-QFKgKfyrIBCOwYfq-265" value="&lt;b style=&quot;font-size: 16px;&quot;&gt;TLB Read&lt;/b&gt;" style="rounded=0;whiteSpace=wrap;html=1;fillColor=#cdeb8b;strokeColor=#000000;fontSize=16;" parent="1" vertex="1">
                    <mxGeometry x="480" y="1340" width="160" height="40" as="geometry"/>
                </mxCell>
                <mxCell id="pp8-QFKgKfyrIBCOwYfq-268" style="edgeStyle=orthogonalEdgeStyle;rounded=0;orthogonalLoop=1;jettySize=auto;html=1;exitX=1;exitY=0.5;exitDx=0;exitDy=0;entryX=0;entryY=0.5;entryDx=0;entryDy=0;strokeColor=#000000;" parent="1" source="pp8-QFKgKfyrIBCOwYfq-252" target="pp8-QFKgKfyrIBCOwYfq-261" edge="1">
                    <mxGeometry relative="1" as="geometry"/>
                </mxCell>
                <mxCell id="pp8-QFKgKfyrIBCOwYfq-333" style="edgeStyle=orthogonalEdgeStyle;rounded=0;orthogonalLoop=1;jettySize=auto;html=1;exitX=0.999;exitY=0.495;exitDx=0;exitDy=0;fillColor=#ffff88;strokeColor=#000000;exitPerimeter=0;" parent="1" source="pp8-QFKgKfyrIBCOwYfq-272" edge="1">
                    <mxGeometry relative="1" as="geometry">
                        <mxPoint x="910" y="570.75" as="sourcePoint"/>
                        <mxPoint x="520" y="680" as="targetPoint"/>
                        <Array as="points">
                            <mxPoint x="919" y="780"/>
                            <mxPoint x="930" y="780"/>
                            <mxPoint x="930" y="481"/>
                            <mxPoint x="460" y="481"/>
                            <mxPoint x="460" y="680"/>
                        </Array>
                    </mxGeometry>
                </mxCell>
                <mxCell id="pp8-QFKgKfyrIBCOwYfq-334" style="edgeStyle=orthogonalEdgeStyle;rounded=0;orthogonalLoop=1;jettySize=auto;html=1;exitX=1;exitY=0.5;exitDx=0;exitDy=0;entryX=0.5;entryY=1;entryDx=0;entryDy=0;fontColor=#FF0000;strokeColor=#000000;" parent="1" source="pp8-QFKgKfyrIBCOwYfq-272" target="pp8-QFKgKfyrIBCOwYfq-232" edge="1">
                    <mxGeometry relative="1" as="geometry">
                        <Array as="points">
                            <mxPoint x="919" y="780"/>
                            <mxPoint x="930" y="780"/>
                            <mxPoint x="930" y="480"/>
                            <mxPoint x="460" y="480"/>
                            <mxPoint x="460" y="880"/>
                            <mxPoint x="560" y="880"/>
                        </Array>
                    </mxGeometry>
                </mxCell>
                <mxCell id="pp8-QFKgKfyrIBCOwYfq-335" style="edgeStyle=orthogonalEdgeStyle;rounded=0;orthogonalLoop=1;jettySize=auto;html=1;exitX=1;exitY=0.5;exitDx=0;exitDy=0;entryX=0;entryY=0.5;entryDx=0;entryDy=0;fontColor=#FFFF00;fillColor=#cdeb8b;strokeColor=#000000;" parent="1" source="pp8-QFKgKfyrIBCOwYfq-272" target="pp8-QFKgKfyrIBCOwYfq-233" edge="1">
                    <mxGeometry relative="1" as="geometry">
                        <Array as="points">
                            <mxPoint x="919" y="780"/>
                            <mxPoint x="930" y="780"/>
                            <mxPoint x="930" y="480"/>
                            <mxPoint x="460" y="480"/>
                            <mxPoint x="460" y="966"/>
                        </Array>
                    </mxGeometry>
                </mxCell>
                <mxCell id="pp8-QFKgKfyrIBCOwYfq-272" value="&lt;b style=&quot;font-size: 16px;&quot;&gt;&lt;font style=&quot;font-size: 16px;&quot;&gt;ByPass&lt;/font&gt;&lt;/b&gt;" style="rounded=1;whiteSpace=wrap;html=1;fillColor=#ffcccc;strokeColor=#000000;fontSize=16;" parent="1" vertex="1">
                    <mxGeometry x="799.5" y="718.5" width="120" height="119.5" as="geometry"/>
                </mxCell>
                <mxCell id="pp8-QFKgKfyrIBCOwYfq-273" value="" style="group;strokeColor=#000000;" parent="1" vertex="1" connectable="0">
                    <mxGeometry x="960" y="1320" width="40" height="160" as="geometry"/>
                </mxCell>
                <mxCell id="pp8-QFKgKfyrIBCOwYfq-274" value="" style="rounded=0;whiteSpace=wrap;html=1;fillColor=#f5f5f5;fontColor=#333333;strokeColor=#000000;" parent="pp8-QFKgKfyrIBCOwYfq-273" vertex="1">
                    <mxGeometry width="40" height="160" as="geometry"/>
                </mxCell>
                <mxCell id="pp8-QFKgKfyrIBCOwYfq-275" value="" style="triangle;whiteSpace=wrap;html=1;rotation=-90;fillColor=#647687;fontColor=#ffffff;strokeColor=#000000;" parent="pp8-QFKgKfyrIBCOwYfq-273" vertex="1">
                    <mxGeometry y="120" width="40" height="40" as="geometry"/>
                </mxCell>
                <mxCell id="pp8-QFKgKfyrIBCOwYfq-279" style="edgeStyle=orthogonalEdgeStyle;rounded=0;orthogonalLoop=1;jettySize=auto;html=1;exitX=1;exitY=0.5;exitDx=0;exitDy=0;entryX=-0.008;entryY=0.217;entryDx=0;entryDy=0;entryPerimeter=0;strokeColor=#000000;" parent="1" target="pp8-QFKgKfyrIBCOwYfq-272" edge="1">
                    <mxGeometry relative="1" as="geometry">
                        <Array as="points">
                            <mxPoint x="750" y="680"/>
                            <mxPoint x="750" y="744"/>
                            <mxPoint x="799" y="744"/>
                        </Array>
                        <mxPoint x="790.8400000000001" y="418.0385000000001" as="targetPoint"/>
                        <mxPoint x="719.5" y="680" as="sourcePoint"/>
                    </mxGeometry>
                </mxCell>
                <mxCell id="pp8-QFKgKfyrIBCOwYfq-280" style="edgeStyle=orthogonalEdgeStyle;rounded=0;orthogonalLoop=1;jettySize=auto;html=1;entryX=-0.002;entryY=0.473;entryDx=0;entryDy=0;exitX=0.512;exitY=0.394;exitDx=0;exitDy=0;exitPerimeter=0;entryPerimeter=0;strokeColor=#000000;" parent="1" source="pp8-QFKgKfyrIBCOwYfq-427" target="pp8-QFKgKfyrIBCOwYfq-272" edge="1">
                    <mxGeometry relative="1" as="geometry">
                        <Array as="points">
                            <mxPoint x="760" y="775"/>
                        </Array>
                        <mxPoint x="759.2500305175781" y="950" as="sourcePoint"/>
                    </mxGeometry>
                </mxCell>
                <mxCell id="pp8-QFKgKfyrIBCOwYfq-303" style="edgeStyle=orthogonalEdgeStyle;rounded=0;orthogonalLoop=1;jettySize=auto;html=1;exitX=1;exitY=0.5;exitDx=0;exitDy=0;entryX=1;entryY=0.5;entryDx=0;entryDy=0;strokeColor=#000000;" parent="1" target="pp8-QFKgKfyrIBCOwYfq-302" edge="1">
                    <mxGeometry relative="1" as="geometry">
                        <Array as="points">
                            <mxPoint x="1240" y="860"/>
                            <mxPoint x="1240" y="1344"/>
                        </Array>
                        <mxPoint x="1199.5" y="860" as="sourcePoint"/>
                    </mxGeometry>
                </mxCell>
                <mxCell id="pp8-QFKgKfyrIBCOwYfq-331" style="edgeStyle=orthogonalEdgeStyle;rounded=0;orthogonalLoop=1;jettySize=auto;html=1;exitX=0.499;exitY=0.001;exitDx=0;exitDy=0;entryX=0.464;entryY=0;entryDx=0;entryDy=0;strokeColor=#000000;entryPerimeter=0;exitPerimeter=0;" parent="1" source="S6ko7MBMmiBV2JEF59HL-68" target="pp8-QFKgKfyrIBCOwYfq-94" edge="1">
                    <mxGeometry relative="1" as="geometry">
                        <Array as="points">
                            <mxPoint x="1140" y="460"/>
                            <mxPoint x="-729" y="460"/>
                        </Array>
                        <mxPoint x="1139.5" y="480" as="sourcePoint"/>
                    </mxGeometry>
                </mxCell>
                <mxCell id="pp8-QFKgKfyrIBCOwYfq-293" style="edgeStyle=orthogonalEdgeStyle;rounded=0;orthogonalLoop=1;jettySize=auto;html=1;exitX=1;exitY=0.5;exitDx=0;exitDy=0;entryX=-0.001;entryY=0.221;entryDx=0;entryDy=0;entryPerimeter=0;strokeColor=#000000;" parent="1" target="S6ko7MBMmiBV2JEF59HL-68" edge="1">
                    <mxGeometry relative="1" as="geometry">
                        <mxPoint x="1080" y="720" as="targetPoint"/>
                        <Array as="points"/>
                        <mxPoint x="719.5" y="680" as="sourcePoint"/>
                    </mxGeometry>
                </mxCell>
                <mxCell id="pp8-QFKgKfyrIBCOwYfq-295" style="edgeStyle=orthogonalEdgeStyle;rounded=0;orthogonalLoop=1;jettySize=auto;html=1;exitX=1;exitY=0.5;exitDx=0;exitDy=0;entryX=-0.021;entryY=0.387;entryDx=0;entryDy=0;entryPerimeter=0;strokeColor=#000000;" parent="1" source="pp8-QFKgKfyrIBCOwYfq-241" target="S6ko7MBMmiBV2JEF59HL-68" edge="1">
                    <mxGeometry relative="1" as="geometry">
                        <mxPoint x="1078.8999999999996" y="799.1999999999998" as="targetPoint"/>
                        <Array as="points">
                            <mxPoint x="960" y="920"/>
                            <mxPoint x="960" y="800"/>
                        </Array>
                    </mxGeometry>
                </mxCell>
                <mxCell id="pp8-QFKgKfyrIBCOwYfq-297" style="edgeStyle=orthogonalEdgeStyle;rounded=0;orthogonalLoop=1;jettySize=auto;html=1;exitX=1;exitY=0.5;exitDx=0;exitDy=0;strokeColor=#000000;" parent="1" source="pp8-QFKgKfyrIBCOwYfq-274" edge="1">
                    <mxGeometry relative="1" as="geometry">
                        <mxPoint x="1080" y="960" as="targetPoint"/>
                        <Array as="points">
                            <mxPoint x="1040" y="1400"/>
                            <mxPoint x="1040" y="960"/>
                            <mxPoint x="1080" y="960"/>
                        </Array>
                    </mxGeometry>
                </mxCell>
                <mxCell id="pp8-QFKgKfyrIBCOwYfq-302" value="&lt;font style=&quot;font-size: 16px;&quot;&gt;&lt;b style=&quot;font-size: 16px;&quot;&gt;ARat&lt;/b&gt;&lt;/font&gt;" style="rounded=1;whiteSpace=wrap;html=1;fillColor=#ffcc99;strokeColor=#000000;fontSize=16;" parent="1" vertex="1">
                    <mxGeometry x="1080" y="1280" width="120" height="127.5" as="geometry"/>
                </mxCell>
                <mxCell id="pp8-QFKgKfyrIBCOwYfq-322" style="edgeStyle=orthogonalEdgeStyle;rounded=0;orthogonalLoop=1;jettySize=auto;html=1;exitX=1;exitY=0.25;exitDx=0;exitDy=0;entryX=0;entryY=0.5;entryDx=0;entryDy=0;strokeColor=#000000;" parent="1" source="pp8-QFKgKfyrIBCOwYfq-201" target="pp8-QFKgKfyrIBCOwYfq-265" edge="1">
                    <mxGeometry relative="1" as="geometry"/>
                </mxCell>
                <mxCell id="pp8-QFKgKfyrIBCOwYfq-373" value="pack_DP" style="text;html=1;align=center;verticalAlign=middle;resizable=0;points=[];autosize=1;strokeColor=#000000;fillColor=none;fontStyle=1;fontSize=14;" parent="1" vertex="1">
                    <mxGeometry x="-585" y="653.5" width="80" height="30" as="geometry"/>
                </mxCell>
                <mxCell id="pp8-QFKgKfyrIBCOwYfq-374" value="" style="endArrow=none;html=1;rounded=0;strokeColor=#000000;" parent="1" edge="1">
                    <mxGeometry width="50" height="50" relative="1" as="geometry">
                        <mxPoint x="-511" y="684.5" as="sourcePoint"/>
                        <mxPoint x="-501" y="674.5" as="targetPoint"/>
                    </mxGeometry>
                </mxCell>
                <mxCell id="pp8-QFKgKfyrIBCOwYfq-375" value="2" style="text;html=1;align=center;verticalAlign=middle;resizable=0;points=[];autosize=1;strokeColor=#000000;fillColor=none;" parent="1" vertex="1">
                    <mxGeometry x="-520" y="672.5" width="30" height="30" as="geometry"/>
                </mxCell>
                <mxCell id="pp8-QFKgKfyrIBCOwYfq-376" value="pack_DP" style="text;html=1;align=center;verticalAlign=middle;resizable=0;points=[];autosize=1;strokeColor=#000000;fillColor=none;fontStyle=1;fontSize=14;" parent="1" vertex="1">
                    <mxGeometry x="-585" y="897" width="80" height="30" as="geometry"/>
                </mxCell>
                <mxCell id="pp8-QFKgKfyrIBCOwYfq-377" value="" style="endArrow=none;html=1;rounded=0;strokeColor=#000000;" parent="1" edge="1">
                    <mxGeometry width="50" height="50" relative="1" as="geometry">
                        <mxPoint x="-511" y="925" as="sourcePoint"/>
                        <mxPoint x="-501" y="915" as="targetPoint"/>
                    </mxGeometry>
                </mxCell>
                <mxCell id="pp8-QFKgKfyrIBCOwYfq-378" value="2" style="text;html=1;align=center;verticalAlign=middle;resizable=0;points=[];autosize=1;strokeColor=#000000;fillColor=none;" parent="1" vertex="1">
                    <mxGeometry x="-520" y="916" width="30" height="30" as="geometry"/>
                </mxCell>
                <mxCell id="pp8-QFKgKfyrIBCOwYfq-379" value="pack_DP" style="text;html=1;align=center;verticalAlign=middle;resizable=0;points=[];autosize=1;strokeColor=#000000;fillColor=none;fontStyle=1;fontSize=14;" parent="1" vertex="1">
                    <mxGeometry x="-585" y="1134.5" width="80" height="30" as="geometry"/>
                </mxCell>
                <mxCell id="pp8-QFKgKfyrIBCOwYfq-380" value="" style="endArrow=none;html=1;rounded=0;strokeColor=#000000;" parent="1" edge="1">
                    <mxGeometry width="50" height="50" relative="1" as="geometry">
                        <mxPoint x="-511" y="1163.5" as="sourcePoint"/>
                        <mxPoint x="-501" y="1153.5" as="targetPoint"/>
                    </mxGeometry>
                </mxCell>
                <mxCell id="pp8-QFKgKfyrIBCOwYfq-381" value="2" style="text;html=1;align=center;verticalAlign=middle;resizable=0;points=[];autosize=1;strokeColor=#000000;fillColor=none;" parent="1" vertex="1">
                    <mxGeometry x="-520" y="1154.5" width="30" height="30" as="geometry"/>
                </mxCell>
                <mxCell id="pp8-QFKgKfyrIBCOwYfq-382" value="pack_DP" style="text;html=1;align=center;verticalAlign=middle;resizable=0;points=[];autosize=1;strokeColor=#000000;fillColor=none;fontStyle=1;fontSize=14;" parent="1" vertex="1">
                    <mxGeometry x="-585" y="1374.5" width="80" height="30" as="geometry"/>
                </mxCell>
                <mxCell id="pp8-QFKgKfyrIBCOwYfq-383" value="" style="endArrow=none;html=1;rounded=0;strokeColor=#000000;" parent="1" edge="1">
                    <mxGeometry width="50" height="50" relative="1" as="geometry">
                        <mxPoint x="-511" y="1402.5" as="sourcePoint"/>
                        <mxPoint x="-501" y="1392.5" as="targetPoint"/>
                    </mxGeometry>
                </mxCell>
                <mxCell id="pp8-QFKgKfyrIBCOwYfq-384" value="2" style="text;html=1;align=center;verticalAlign=middle;resizable=0;points=[];autosize=1;strokeColor=#000000;fillColor=none;" parent="1" vertex="1">
                    <mxGeometry x="-520" y="1393.5" width="30" height="30" as="geometry"/>
                </mxCell>
                <mxCell id="pp8-QFKgKfyrIBCOwYfq-385" value="pack_IS" style="text;html=1;align=center;verticalAlign=middle;resizable=0;points=[];autosize=1;strokeColor=#000000;fillColor=none;fontStyle=1;fontSize=14;" parent="1" vertex="1">
                    <mxGeometry x="-38" y="654" width="80" height="30" as="geometry"/>
                </mxCell>
                <mxCell id="pp8-QFKgKfyrIBCOwYfq-386" value="pack_IS" style="text;html=1;align=center;verticalAlign=middle;resizable=0;points=[];autosize=1;strokeColor=#000000;fillColor=none;fontStyle=1;fontSize=14;" parent="1" vertex="1">
                    <mxGeometry x="-40" y="896" width="80" height="30" as="geometry"/>
                </mxCell>
                <mxCell id="pp8-QFKgKfyrIBCOwYfq-388" value="pack_IS" style="text;html=1;align=center;verticalAlign=middle;resizable=0;points=[];autosize=1;strokeColor=#000000;fillColor=none;fontStyle=1;fontSize=14;" parent="1" vertex="1">
                    <mxGeometry x="-40" y="1135.5" width="80" height="30" as="geometry"/>
                </mxCell>
                <mxCell id="pp8-QFKgKfyrIBCOwYfq-389" value="pack_IS" style="text;html=1;align=center;verticalAlign=middle;resizable=0;points=[];autosize=1;strokeColor=#000000;fillColor=none;fontStyle=1;fontSize=14;" parent="1" vertex="1">
                    <mxGeometry x="-38" y="1330.5" width="80" height="30" as="geometry"/>
                </mxCell>
                <mxCell id="pp8-QFKgKfyrIBCOwYfq-397" value="raddr" style="text;html=1;align=center;verticalAlign=middle;resizable=0;points=[];autosize=1;strokeColor=#000000;fillColor=none;fontStyle=1;fontSize=14;" parent="1" vertex="1">
                    <mxGeometry x="87" y="897" width="60" height="30" as="geometry"/>
                </mxCell>
                <mxCell id="pp8-QFKgKfyrIBCOwYfq-398" value="" style="endArrow=none;html=1;rounded=0;strokeColor=#000000;" parent="1" edge="1">
                    <mxGeometry width="50" height="50" relative="1" as="geometry">
                        <mxPoint x="139" y="925" as="sourcePoint"/>
                        <mxPoint x="149" y="915" as="targetPoint"/>
                    </mxGeometry>
                </mxCell>
                <mxCell id="pp8-QFKgKfyrIBCOwYfq-399" value="2" style="text;html=1;align=center;verticalAlign=middle;resizable=0;points=[];autosize=1;strokeColor=#000000;fillColor=none;" parent="1" vertex="1">
                    <mxGeometry x="130" y="916" width="30" height="30" as="geometry"/>
                </mxCell>
                <mxCell id="pp8-QFKgKfyrIBCOwYfq-414" value="rdata" style="text;html=1;align=center;verticalAlign=middle;resizable=0;points=[];autosize=1;strokeColor=#000000;fillColor=none;fontStyle=1;fontSize=14;" parent="1" vertex="1">
                    <mxGeometry x="323.5" y="898" width="60" height="30" as="geometry"/>
                </mxCell>
                <mxCell id="pp8-QFKgKfyrIBCOwYfq-415" value="" style="endArrow=none;html=1;rounded=0;strokeColor=#000000;" parent="1" edge="1">
                    <mxGeometry width="50" height="50" relative="1" as="geometry">
                        <mxPoint x="375.5" y="926" as="sourcePoint"/>
                        <mxPoint x="385.5" y="916" as="targetPoint"/>
                    </mxGeometry>
                </mxCell>
                <mxCell id="pp8-QFKgKfyrIBCOwYfq-416" value="2" style="text;html=1;align=center;verticalAlign=middle;resizable=0;points=[];autosize=1;strokeColor=#000000;fillColor=none;" parent="1" vertex="1">
                    <mxGeometry x="366.5" y="917" width="30" height="30" as="geometry"/>
                </mxCell>
                <mxCell id="pp8-QFKgKfyrIBCOwYfq-427" value="" style="shape=waypoint;sketch=0;fillStyle=solid;size=6;pointerEvents=1;points=[];fillColor=none;resizable=0;rotatable=0;perimeter=centerPerimeter;snapToPoint=1;strokeColor=#000000;" parent="1" vertex="1">
                    <mxGeometry x="750" y="910" width="20" height="20" as="geometry"/>
                </mxCell>
                <mxCell id="pp8-QFKgKfyrIBCOwYfq-431" value="" style="shape=waypoint;sketch=0;fillStyle=solid;size=6;pointerEvents=1;points=[];fillColor=none;resizable=0;rotatable=0;perimeter=centerPerimeter;snapToPoint=1;strokeColor=#000000;" parent="1" vertex="1">
                    <mxGeometry x="740" y="669" width="20" height="20" as="geometry"/>
                </mxCell>
                <mxCell id="pp8-QFKgKfyrIBCOwYfq-436" value="&lt;b&gt;&lt;font style=&quot;font-size: 14px;&quot;&gt;wvalid&lt;/font&gt;&lt;/b&gt;" style="text;html=1;align=center;verticalAlign=middle;resizable=0;points=[];autosize=1;strokeColor=#000000;fillColor=none;" parent="1" vertex="1">
                    <mxGeometry x="338" y="1415" width="70" height="30" as="geometry"/>
                </mxCell>
                <mxCell id="pp8-QFKgKfyrIBCOwYfq-440" value="" style="endArrow=none;html=1;rounded=0;strokeColor=#000000;fontColor=#FF0000;" parent="1" edge="1">
                    <mxGeometry width="50" height="50" relative="1" as="geometry">
                        <mxPoint x="494.5" y="684.5" as="sourcePoint"/>
                        <mxPoint x="504.5" y="674.5" as="targetPoint"/>
                    </mxGeometry>
                </mxCell>
                <mxCell id="pp8-QFKgKfyrIBCOwYfq-441" value="2" style="text;html=1;align=center;verticalAlign=middle;resizable=0;points=[];autosize=1;strokeColor=#000000;fillColor=none;fontColor=#FF0000;" parent="1" vertex="1">
                    <mxGeometry x="490" y="672.5" width="30" height="30" as="geometry"/>
                </mxCell>
                <mxCell id="pp8-QFKgKfyrIBCOwYfq-442" value="" style="endArrow=none;html=1;rounded=0;strokeColor=#000000;fontColor=#FF0000;" parent="1" edge="1">
                    <mxGeometry width="50" height="50" relative="1" as="geometry">
                        <mxPoint x="539" y="884" as="sourcePoint"/>
                        <mxPoint x="549" y="874" as="targetPoint"/>
                    </mxGeometry>
                </mxCell>
                <mxCell id="pp8-QFKgKfyrIBCOwYfq-443" value="2" style="text;html=1;align=center;verticalAlign=middle;resizable=0;points=[];autosize=1;strokeColor=#000000;fillColor=none;fontColor=#FF0000;" parent="1" vertex="1">
                    <mxGeometry x="530" y="875" width="30" height="30" as="geometry"/>
                </mxCell>
                <mxCell id="pp8-QFKgKfyrIBCOwYfq-444" value="" style="endArrow=none;html=1;rounded=0;strokeColor=#000000;fontColor=#FF0000;" parent="1" edge="1">
                    <mxGeometry width="50" height="50" relative="1" as="geometry">
                        <mxPoint x="520" y="970" as="sourcePoint"/>
                        <mxPoint x="530" y="960" as="targetPoint"/>
                    </mxGeometry>
                </mxCell>
                <mxCell id="pp8-QFKgKfyrIBCOwYfq-446" value="2" style="text;html=1;align=center;verticalAlign=middle;resizable=0;points=[];autosize=1;strokeColor=#000000;fillColor=none;fontColor=#FF0000;" parent="1" vertex="1">
                    <mxGeometry x="512" y="957.5" width="30" height="30" as="geometry"/>
                </mxCell>
                <mxCell id="pp8-QFKgKfyrIBCOwYfq-449" value="src1" style="text;html=1;align=center;verticalAlign=middle;resizable=0;points=[];autosize=1;strokeColor=#000000;fillColor=none;fontStyle=1;fontSize=14;" parent="1" vertex="1">
                    <mxGeometry x="463.5" y="615.5" width="50" height="30" as="geometry"/>
                </mxCell>
                <mxCell id="pp8-QFKgKfyrIBCOwYfq-450" value="src2" style="text;html=1;align=center;verticalAlign=middle;resizable=0;points=[];autosize=1;strokeColor=#000000;fillColor=none;fontStyle=1;fontSize=14;" parent="1" vertex="1">
                    <mxGeometry x="460" y="695.5" width="50" height="30" as="geometry"/>
                </mxCell>
                <mxCell id="pp8-QFKgKfyrIBCOwYfq-451" value="src1" style="text;html=1;align=center;verticalAlign=middle;resizable=0;points=[];autosize=1;strokeColor=#000000;fillColor=none;fontStyle=1;fontSize=14;" parent="1" vertex="1">
                    <mxGeometry x="483" y="837" width="50" height="30" as="geometry"/>
                </mxCell>
                <mxCell id="pp8-QFKgKfyrIBCOwYfq-452" value="src2" style="text;html=1;align=center;verticalAlign=middle;resizable=0;points=[];autosize=1;strokeColor=#000000;fillColor=none;fontStyle=1;fontSize=14;" parent="1" vertex="1">
                    <mxGeometry x="482" y="877" width="50" height="30" as="geometry"/>
                </mxCell>
                <mxCell id="pp8-QFKgKfyrIBCOwYfq-453" value="src1" style="text;html=1;align=center;verticalAlign=middle;resizable=0;points=[];autosize=1;strokeColor=#000000;fillColor=none;fontStyle=1;fontSize=14;" parent="1" vertex="1">
                    <mxGeometry x="479.5" y="925" width="50" height="30" as="geometry"/>
                </mxCell>
                <mxCell id="pp8-QFKgKfyrIBCOwYfq-454" value="src2" style="text;html=1;align=center;verticalAlign=middle;resizable=0;points=[];autosize=1;strokeColor=#000000;fillColor=none;fontStyle=1;fontSize=14;" parent="1" vertex="1">
                    <mxGeometry x="479.5" y="960" width="50" height="30" as="geometry"/>
                </mxCell>
                <mxCell id="pp8-QFKgKfyrIBCOwYfq-457" value="&lt;font color=&quot;#ff0000&quot; style=&quot;font-size: 12px;&quot;&gt;forward&lt;/font&gt;" style="text;html=1;align=center;verticalAlign=middle;resizable=0;points=[];autosize=1;strokeColor=#000000;fillColor=none;fontStyle=1;fontSize=12;" parent="1" vertex="1">
                    <mxGeometry x="453.5" y="652.5" width="70" height="30" as="geometry"/>
                </mxCell>
                <mxCell id="pp8-QFKgKfyrIBCOwYfq-458" value="&lt;font color=&quot;#ff0000&quot; style=&quot;font-size: 12px;&quot;&gt;forward&lt;/font&gt;" style="text;html=1;align=center;verticalAlign=middle;resizable=0;points=[];autosize=1;strokeColor=#000000;fillColor=none;fontStyle=1;fontSize=12;" parent="1" vertex="1">
                    <mxGeometry x="473" y="858" width="70" height="30" as="geometry"/>
                </mxCell>
                <mxCell id="pp8-QFKgKfyrIBCOwYfq-459" value="&lt;font color=&quot;#ff0000&quot; style=&quot;font-size: 12px;&quot;&gt;forward&lt;/font&gt;" style="text;html=1;align=center;verticalAlign=middle;resizable=0;points=[];autosize=1;strokeColor=#000000;fillColor=none;fontStyle=1;fontSize=12;" parent="1" vertex="1">
                    <mxGeometry x="464.5" y="943" width="70" height="30" as="geometry"/>
                </mxCell>
                <mxCell id="pp8-QFKgKfyrIBCOwYfq-461" value="" style="shape=waypoint;sketch=0;fillStyle=solid;size=6;pointerEvents=1;points=[];fillColor=none;resizable=0;rotatable=0;perimeter=centerPerimeter;snapToPoint=1;strokeColor=#000000;" parent="1" vertex="1">
                    <mxGeometry x="450" y="669.5" width="20" height="20" as="geometry"/>
                </mxCell>
                <mxCell id="pp8-QFKgKfyrIBCOwYfq-462" value="" style="shape=waypoint;sketch=0;fillStyle=solid;size=6;pointerEvents=1;points=[];fillColor=none;resizable=0;rotatable=0;perimeter=centerPerimeter;snapToPoint=1;strokeColor=#000000;" parent="1" vertex="1">
                    <mxGeometry x="450" y="870" width="20" height="20" as="geometry"/>
                </mxCell>
                <mxCell id="pp8-QFKgKfyrIBCOwYfq-463" value="" style="shape=waypoint;sketch=0;fillStyle=solid;size=6;pointerEvents=1;points=[];fillColor=none;resizable=0;rotatable=0;perimeter=centerPerimeter;snapToPoint=1;strokeColor=#000000;" parent="1" vertex="1">
                    <mxGeometry x="440" y="870" width="20" height="20" as="geometry"/>
                </mxCell>
                <mxCell id="pp8-QFKgKfyrIBCOwYfq-464" value="" style="shape=waypoint;sketch=0;fillStyle=solid;size=6;pointerEvents=1;points=[];fillColor=none;resizable=0;rotatable=0;perimeter=centerPerimeter;snapToPoint=1;strokeColor=#000000;" parent="1" vertex="1">
                    <mxGeometry x="460" y="949" width="20" height="20" as="geometry"/>
                </mxCell>
                <mxCell id="pp8-QFKgKfyrIBCOwYfq-467" value="src1" style="text;html=1;align=center;verticalAlign=middle;resizable=0;points=[];autosize=1;strokeColor=#000000;fillColor=none;fontStyle=1;fontSize=14;" parent="1" vertex="1">
                    <mxGeometry x="435" y="1095.25" width="50" height="30" as="geometry"/>
                </mxCell>
                <mxCell id="pp8-QFKgKfyrIBCOwYfq-468" value="src2" style="text;html=1;align=center;verticalAlign=middle;resizable=0;points=[];autosize=1;strokeColor=#000000;fillColor=none;fontStyle=1;fontSize=14;" parent="1" vertex="1">
                    <mxGeometry x="435" y="1176.75" width="50" height="30" as="geometry"/>
                </mxCell>
                <mxCell id="pp8-QFKgKfyrIBCOwYfq-470" value="alu_out" style="text;html=1;align=center;verticalAlign=middle;resizable=0;points=[];autosize=1;strokeColor=#000000;fillColor=none;fontStyle=1;fontSize=14;" parent="1" vertex="1">
                    <mxGeometry x="590" y="652.5" width="70" height="30" as="geometry"/>
                </mxCell>
                <mxCell id="pp8-QFKgKfyrIBCOwYfq-471" value="alu_out" style="text;html=1;align=center;verticalAlign=middle;resizable=0;points=[];autosize=1;strokeColor=#000000;fillColor=none;fontStyle=1;fontSize=14;" parent="1" vertex="1">
                    <mxGeometry x="603" y="855.5" width="70" height="30" as="geometry"/>
                </mxCell>
                <mxCell id="pp8-QFKgKfyrIBCOwYfq-472" value="br_out" style="text;html=1;align=center;verticalAlign=middle;resizable=0;points=[];autosize=1;strokeColor=#000000;fillColor=none;fontStyle=1;fontSize=14;" parent="1" vertex="1">
                    <mxGeometry x="609" y="941" width="70" height="30" as="geometry"/>
                </mxCell>
                <mxCell id="pp8-QFKgKfyrIBCOwYfq-484" value="&lt;font style=&quot;font-size: 60px;&quot;&gt;FrontEnd&lt;/font&gt;" style="text;html=1;align=center;verticalAlign=middle;resizable=0;points=[];autosize=1;strokeColor=#000000;fillColor=none;fontSize=60;" parent="1" vertex="1">
                    <mxGeometry x="113.5" y="-280" width="270" height="90" as="geometry"/>
                </mxCell>
                <mxCell id="pp8-QFKgKfyrIBCOwYfq-485" value="&lt;font style=&quot;font-size: 60px;&quot;&gt;BackEnd&lt;/font&gt;" style="text;html=1;align=center;verticalAlign=middle;resizable=0;points=[];autosize=1;strokeColor=#000000;fillColor=none;fontSize=60;" parent="1" vertex="1">
                    <mxGeometry x="110" y="1610" width="260" height="90" as="geometry"/>
                </mxCell>
                <mxCell id="OBkfgQADqY20GEj0UtqT-1" value="&lt;font style=&quot;font-size: 14px;&quot;&gt;&lt;b&gt;rob_index&lt;/b&gt;&lt;/font&gt;" style="text;html=1;align=center;verticalAlign=middle;resizable=0;points=[];autosize=1;strokeColor=#000000;fillColor=none;" parent="1" vertex="1">
                    <mxGeometry x="-730" y="707" width="90" height="30" as="geometry"/>
                </mxCell>
                <mxCell id="OBkfgQADqY20GEj0UtqT-15" value="&lt;b&gt;Counter&lt;/b&gt;" style="rounded=1;whiteSpace=wrap;html=1;fillColor=#dae8fc;strokeColor=#000000;" parent="1" vertex="1">
                    <mxGeometry x="522" y="705" width="55" height="30" as="geometry"/>
                </mxCell>
                <mxCell id="OY7V5wZrcTOGdJZJS2dS-27" value="" style="triangle;whiteSpace=wrap;html=1;rotation=0;fillColor=#647687;fontColor=#ffffff;strokeColor=#000000;direction=east;" parent="1" vertex="1">
                    <mxGeometry x="-480" y="659.75" width="20" height="39.5" as="geometry"/>
                </mxCell>
                <mxCell id="OY7V5wZrcTOGdJZJS2dS-28" value="" style="triangle;whiteSpace=wrap;html=1;rotation=0;fillColor=#647687;fontColor=#ffffff;strokeColor=#000000;direction=east;" parent="1" vertex="1">
                    <mxGeometry x="-480" y="901.5" width="20" height="39.5" as="geometry"/>
                </mxCell>
                <mxCell id="OY7V5wZrcTOGdJZJS2dS-29" value="" style="triangle;whiteSpace=wrap;html=1;rotation=0;fillColor=#647687;fontColor=#ffffff;strokeColor=#000000;direction=east;" parent="1" vertex="1">
                    <mxGeometry x="-480" y="1140.5" width="20" height="39.5" as="geometry"/>
                </mxCell>
                <mxCell id="OY7V5wZrcTOGdJZJS2dS-30" value="" style="triangle;whiteSpace=wrap;html=1;rotation=0;fillColor=#647687;fontColor=#ffffff;strokeColor=#000000;direction=east;" parent="1" vertex="1">
                    <mxGeometry x="-480" y="1380" width="20" height="39.5" as="geometry"/>
                </mxCell>
                <mxCell id="OY7V5wZrcTOGdJZJS2dS-32" value="&lt;b&gt;&lt;font style=&quot;font-size: 14px;&quot;&gt;store_item&lt;/font&gt;&lt;/b&gt;" style="text;html=1;align=center;verticalAlign=middle;resizable=0;points=[];autosize=1;strokeColor=#000000;fillColor=none;" parent="1" vertex="1">
                    <mxGeometry x="740" y="1472.5" width="90" height="30" as="geometry"/>
                </mxCell>
                <mxCell id="S6ko7MBMmiBV2JEF59HL-68" value="&lt;b style=&quot;border-color: var(--border-color);&quot;&gt;&lt;font style=&quot;font-size: 20px;&quot;&gt;ROB&lt;/font&gt;&lt;/b&gt;" style="rounded=1;whiteSpace=wrap;html=1;fillColor=#ffe6cc;strokeColor=#000000;" parent="1" vertex="1">
                    <mxGeometry x="1080" y="521" width="120" height="720" as="geometry"/>
                </mxCell>
                <mxCell id="S6ko7MBMmiBV2JEF59HL-72" value="" style="group;strokeColor=#000000;" parent="1" vertex="1" connectable="0">
                    <mxGeometry x="960" y="1080" width="40" height="160" as="geometry"/>
                </mxCell>
                <mxCell id="S6ko7MBMmiBV2JEF59HL-73" value="" style="rounded=0;whiteSpace=wrap;html=1;fillColor=#f5f5f5;fontColor=#333333;strokeColor=#000000;" parent="S6ko7MBMmiBV2JEF59HL-72" vertex="1">
                    <mxGeometry width="40" height="160" as="geometry"/>
                </mxCell>
                <mxCell id="S6ko7MBMmiBV2JEF59HL-74" value="" style="triangle;whiteSpace=wrap;html=1;rotation=-90;fillColor=#647687;fontColor=#ffffff;strokeColor=#000000;" parent="S6ko7MBMmiBV2JEF59HL-72" vertex="1">
                    <mxGeometry y="120" width="40" height="40" as="geometry"/>
                </mxCell>
                <mxCell id="S6ko7MBMmiBV2JEF59HL-79" style="edgeStyle=orthogonalEdgeStyle;rounded=0;orthogonalLoop=1;jettySize=auto;html=1;strokeColor=#000000;" parent="1" edge="1">
                    <mxGeometry relative="1" as="geometry">
                        <mxPoint x="1000" y="1160" as="sourcePoint"/>
                        <mxPoint x="1080" y="880" as="targetPoint"/>
                        <Array as="points">
                            <mxPoint x="1000" y="1160"/>
                            <mxPoint x="1020" y="1160"/>
                            <mxPoint x="1020" y="880"/>
                        </Array>
                    </mxGeometry>
                </mxCell>
                <mxCell id="S6ko7MBMmiBV2JEF59HL-80" value="complete" style="text;html=1;align=center;verticalAlign=middle;resizable=0;points=[];autosize=1;strokeColor=#000000;fillColor=none;fontStyle=1;fontSize=14;" parent="1" vertex="1">
                    <mxGeometry x="940" y="652" width="80" height="30" as="geometry"/>
                </mxCell>
                <mxCell id="S6ko7MBMmiBV2JEF59HL-81" value="complete" style="text;html=1;align=center;verticalAlign=middle;resizable=0;points=[];autosize=1;strokeColor=#000000;fillColor=none;fontStyle=1;fontSize=14;" parent="1" vertex="1">
                    <mxGeometry x="969" y="773.5" width="80" height="30" as="geometry"/>
                </mxCell>
                <mxCell id="S6ko7MBMmiBV2JEF59HL-82" value="complete" style="text;html=1;align=center;verticalAlign=middle;resizable=0;points=[];autosize=1;strokeColor=#000000;fillColor=none;fontStyle=1;fontSize=14;" parent="1" vertex="1">
                    <mxGeometry x="940" y="997.5" width="80" height="30" as="geometry"/>
                </mxCell>
                <mxCell id="S6ko7MBMmiBV2JEF59HL-85" value="complete" style="text;html=1;align=center;verticalAlign=middle;resizable=0;points=[];autosize=1;strokeColor=#000000;fillColor=none;fontStyle=1;fontSize=14;" parent="1" vertex="1">
                    <mxGeometry x="1033.5" y="1247" width="80" height="30" as="geometry"/>
                </mxCell>
                <mxCell id="S6ko7MBMmiBV2JEF59HL-88" value="&lt;font color=&quot;#ff0000&quot; style=&quot;font-size: 12px;&quot;&gt;rob_index&lt;/font&gt;" style="text;html=1;align=center;verticalAlign=middle;resizable=0;points=[];autosize=1;strokeColor=#000000;fillColor=none;fontStyle=1;fontSize=12;" parent="1" vertex="1">
                    <mxGeometry x="1008.5" y="460" width="80" height="30" as="geometry"/>
                </mxCell>
                <mxCell id="A1JoY7GcFFuIIpcnc2Ma-1" value="&lt;b style=&quot;font-size: 16px;&quot;&gt;RegFile Read&lt;/b&gt;" style="rounded=1;whiteSpace=wrap;html=1;fillColor=#fff2cc;strokeColor=#000000;fontSize=16;" parent="1" vertex="1">
                    <mxGeometry x="159.5" y="1095.25" width="160" height="49.5" as="geometry"/>
                </mxCell>
                <mxCell id="A1JoY7GcFFuIIpcnc2Ma-2" value="raddr" style="text;html=1;align=center;verticalAlign=middle;resizable=0;points=[];autosize=1;strokeColor=#000000;fillColor=none;fontStyle=1;fontSize=14;" parent="1" vertex="1">
                    <mxGeometry x="84.5" y="1113.75" width="60" height="30" as="geometry"/>
                </mxCell>
                <mxCell id="A1JoY7GcFFuIIpcnc2Ma-3" value="" style="endArrow=none;html=1;rounded=0;strokeColor=#000000;" parent="1" edge="1">
                    <mxGeometry width="50" height="50" relative="1" as="geometry">
                        <mxPoint x="138.5" y="1124.25" as="sourcePoint"/>
                        <mxPoint x="148.5" y="1114.25" as="targetPoint"/>
                    </mxGeometry>
                </mxCell>
                <mxCell id="A1JoY7GcFFuIIpcnc2Ma-4" value="2" style="text;html=1;align=center;verticalAlign=middle;resizable=0;points=[];autosize=1;strokeColor=#000000;fillColor=none;" parent="1" vertex="1">
                    <mxGeometry x="129.5" y="1115.25" width="30" height="30" as="geometry"/>
                </mxCell>
                <mxCell id="A1JoY7GcFFuIIpcnc2Ma-5" value="rdata" style="text;html=1;align=center;verticalAlign=middle;resizable=0;points=[];autosize=1;strokeColor=#000000;fillColor=none;fontStyle=1;fontSize=14;" parent="1" vertex="1">
                    <mxGeometry x="314.5" y="1113.75" width="60" height="30" as="geometry"/>
                </mxCell>
                <mxCell id="A1JoY7GcFFuIIpcnc2Ma-6" value="" style="endArrow=none;html=1;rounded=0;strokeColor=#000000;" parent="1" edge="1">
                    <mxGeometry width="50" height="50" relative="1" as="geometry">
                        <mxPoint x="370.5" y="1124.25" as="sourcePoint"/>
                        <mxPoint x="380.5" y="1114.25" as="targetPoint"/>
                    </mxGeometry>
                </mxCell>
                <mxCell id="A1JoY7GcFFuIIpcnc2Ma-7" value="2" style="text;html=1;align=center;verticalAlign=middle;resizable=0;points=[];autosize=1;strokeColor=#000000;fillColor=none;" parent="1" vertex="1">
                    <mxGeometry x="361.5" y="1115.25" width="30" height="30" as="geometry"/>
                </mxCell>
                <mxCell id="A1JoY7GcFFuIIpcnc2Ma-8" value="&lt;b style=&quot;font-size: 16px;&quot;&gt;CSR RegFile&lt;/b&gt;" style="rounded=1;whiteSpace=wrap;html=1;fillColor=#fff2cc;strokeColor=#000000;fontSize=16;" parent="1" vertex="1">
                    <mxGeometry x="159.5" y="1176.75" width="160" height="49.5" as="geometry"/>
                </mxCell>
                <mxCell id="A1JoY7GcFFuIIpcnc2Ma-9" value="" style="endArrow=classic;html=1;rounded=0;exitX=0.999;exitY=0.25;exitDx=0;exitDy=0;exitPerimeter=0;entryX=0;entryY=0.505;entryDx=0;entryDy=0;entryPerimeter=0;strokeColor=#000000;" parent="1" target="A1JoY7GcFFuIIpcnc2Ma-1" edge="1">
                    <mxGeometry width="50" height="50" relative="1" as="geometry">
                        <mxPoint x="79.5" y="1120.25" as="sourcePoint"/>
                        <mxPoint x="149.5" y="1099.25" as="targetPoint"/>
                    </mxGeometry>
                </mxCell>
                <mxCell id="A1JoY7GcFFuIIpcnc2Ma-10" value="" style="endArrow=classic;html=1;rounded=0;exitX=0.997;exitY=0.503;exitDx=0;exitDy=0;exitPerimeter=0;entryX=-0.02;entryY=0.246;entryDx=0;entryDy=0;entryPerimeter=0;strokeColor=#000000;" parent="1" source="A1JoY7GcFFuIIpcnc2Ma-1" edge="1">
                    <mxGeometry width="50" height="50" relative="1" as="geometry">
                        <mxPoint x="339.5" y="1149.25" as="sourcePoint"/>
                        <mxPoint x="398.5" y="1120.25" as="targetPoint"/>
                    </mxGeometry>
                </mxCell>
                <mxCell id="A1JoY7GcFFuIIpcnc2Ma-11" value="raddr" style="text;html=1;align=center;verticalAlign=middle;resizable=0;points=[];autosize=1;strokeColor=#000000;fillColor=none;fontStyle=1;fontSize=14;" parent="1" vertex="1">
                    <mxGeometry x="84.5" y="1193.75" width="60" height="30" as="geometry"/>
                </mxCell>
                <mxCell id="A1JoY7GcFFuIIpcnc2Ma-14" value="" style="endArrow=classic;html=1;rounded=0;exitX=0.999;exitY=0.25;exitDx=0;exitDy=0;exitPerimeter=0;entryX=0;entryY=0.505;entryDx=0;entryDy=0;entryPerimeter=0;strokeColor=#000000;" parent="1" edge="1">
                    <mxGeometry width="50" height="50" relative="1" as="geometry">
                        <mxPoint x="79.5" y="1200.25" as="sourcePoint"/>
                        <mxPoint x="159.5" y="1200.25" as="targetPoint"/>
                    </mxGeometry>
                </mxCell>
                <mxCell id="A1JoY7GcFFuIIpcnc2Ma-15" value="rdata" style="text;html=1;align=center;verticalAlign=middle;resizable=0;points=[];autosize=1;strokeColor=#000000;fillColor=none;fontStyle=1;fontSize=14;" parent="1" vertex="1">
                    <mxGeometry x="314.5" y="1193.75" width="60" height="30" as="geometry"/>
                </mxCell>
                <mxCell id="A1JoY7GcFFuIIpcnc2Ma-18" value="" style="endArrow=classic;html=1;rounded=0;exitX=0.997;exitY=0.503;exitDx=0;exitDy=0;exitPerimeter=0;entryX=-0.02;entryY=0.246;entryDx=0;entryDy=0;entryPerimeter=0;strokeColor=#000000;" parent="1" edge="1">
                    <mxGeometry width="50" height="50" relative="1" as="geometry">
                        <mxPoint x="319.5" y="1200.25" as="sourcePoint"/>
                        <mxPoint x="398.5" y="1200.25" as="targetPoint"/>
                    </mxGeometry>
                </mxCell>
                <mxCell id="A1JoY7GcFFuIIpcnc2Ma-21" value="&lt;b&gt;Priv&lt;/b&gt;" style="rounded=1;whiteSpace=wrap;html=1;fillColor=#d5e8d4;strokeColor=#000000;" parent="1" vertex="1">
                    <mxGeometry x="520" y="1085.5" width="40" height="37" as="geometry"/>
                </mxCell>
                <mxCell id="A1JoY7GcFFuIIpcnc2Ma-22" value="&lt;b&gt;Mul1&lt;/b&gt;" style="rounded=1;whiteSpace=wrap;html=1;fillColor=#dae8fc;strokeColor=#000000;" parent="1" vertex="1">
                    <mxGeometry x="520" y="1141.5" width="40" height="37" as="geometry"/>
                </mxCell>
                <mxCell id="A1JoY7GcFFuIIpcnc2Ma-23" value="&lt;b&gt;Div1&lt;/b&gt;" style="rounded=1;whiteSpace=wrap;html=1;fillColor=#e1d5e7;strokeColor=#000000;" parent="1" vertex="1">
                    <mxGeometry x="520" y="1193.75" width="40" height="37" as="geometry"/>
                </mxCell>
                <mxCell id="pp8-QFKgKfyrIBCOwYfq-247" value="" style="group;strokeColor=#000000;" parent="1" vertex="1" connectable="0">
                    <mxGeometry x="600" y="1080.25" width="40" height="160" as="geometry"/>
                </mxCell>
                <mxCell id="pp8-QFKgKfyrIBCOwYfq-248" value="" style="rounded=0;whiteSpace=wrap;html=1;fillColor=#f5f5f5;fontColor=#333333;strokeColor=#000000;" parent="pp8-QFKgKfyrIBCOwYfq-247" vertex="1">
                    <mxGeometry width="40" height="160" as="geometry"/>
                </mxCell>
                <mxCell id="pp8-QFKgKfyrIBCOwYfq-249" value="" style="triangle;whiteSpace=wrap;html=1;rotation=-90;fillColor=#647687;fontColor=#ffffff;strokeColor=#000000;" parent="pp8-QFKgKfyrIBCOwYfq-247" vertex="1">
                    <mxGeometry y="120" width="40" height="40" as="geometry"/>
                </mxCell>
                <mxCell id="A1JoY7GcFFuIIpcnc2Ma-24" value="" style="group;strokeColor=#000000;" parent="1" vertex="1" connectable="0">
                    <mxGeometry x="760" y="1080" width="640" height="470" as="geometry"/>
                </mxCell>
                <mxCell id="A1JoY7GcFFuIIpcnc2Ma-25" value="" style="rounded=0;whiteSpace=wrap;html=1;fillColor=#f5f5f5;fontColor=#333333;strokeColor=#000000;" parent="A1JoY7GcFFuIIpcnc2Ma-24" vertex="1">
                    <mxGeometry width="40" height="160" as="geometry"/>
                </mxCell>
                <mxCell id="A1JoY7GcFFuIIpcnc2Ma-26" value="" style="triangle;whiteSpace=wrap;html=1;rotation=-90;fillColor=#647687;fontColor=#ffffff;strokeColor=#000000;" parent="A1JoY7GcFFuIIpcnc2Ma-24" vertex="1">
                    <mxGeometry y="120" width="40" height="40" as="geometry"/>
                </mxCell>
                <mxCell id="A1JoY7GcFFuIIpcnc2Ma-27" value="&lt;b&gt;Mul2&lt;/b&gt;" style="rounded=1;whiteSpace=wrap;html=1;fillColor=#dae8fc;strokeColor=#000000;" parent="1" vertex="1">
                    <mxGeometry x="680" y="1141.5" width="40" height="37" as="geometry"/>
                </mxCell>
                <mxCell id="A1JoY7GcFFuIIpcnc2Ma-28" value="&lt;b&gt;Div2&lt;/b&gt;" style="rounded=1;whiteSpace=wrap;html=1;fillColor=#e1d5e7;strokeColor=#000000;" parent="1" vertex="1">
                    <mxGeometry x="680" y="1193.75" width="40" height="37" as="geometry"/>
                </mxCell>
                <mxCell id="doHpjSn7USlp-W5Fj0E6-2" value="" style="edgeStyle=orthogonalEdgeStyle;rounded=0;orthogonalLoop=1;jettySize=auto;html=1;strokeColor=#000000;" parent="1" source="A1JoY7GcFFuIIpcnc2Ma-29" target="S6ko7MBMmiBV2JEF59HL-73" edge="1">
                    <mxGeometry relative="1" as="geometry"/>
                </mxCell>
                <mxCell id="A1JoY7GcFFuIIpcnc2Ma-29" value="&lt;b&gt;Mul3&lt;/b&gt;" style="rounded=1;whiteSpace=wrap;html=1;fillColor=#dae8fc;strokeColor=#000000;" parent="1" vertex="1">
                    <mxGeometry x="840" y="1140.75" width="40" height="37" as="geometry"/>
                </mxCell>
                <mxCell id="doHpjSn7USlp-W5Fj0E6-3" value="" style="edgeStyle=orthogonalEdgeStyle;rounded=0;orthogonalLoop=1;jettySize=auto;html=1;strokeColor=#000000;" parent="1" source="A1JoY7GcFFuIIpcnc2Ma-30" edge="1">
                    <mxGeometry relative="1" as="geometry">
                        <mxPoint x="960" y="1212" as="targetPoint"/>
                    </mxGeometry>
                </mxCell>
                <mxCell id="A1JoY7GcFFuIIpcnc2Ma-30" value="&lt;b&gt;Div3&lt;/b&gt;" style="rounded=1;whiteSpace=wrap;html=1;fillColor=#e1d5e7;strokeColor=#000000;" parent="1" vertex="1">
                    <mxGeometry x="840" y="1193.75" width="40" height="37" as="geometry"/>
                </mxCell>
                <mxCell id="A1JoY7GcFFuIIpcnc2Ma-33" value="" style="endArrow=classic;html=1;rounded=0;exitX=1.005;exitY=0.502;exitDx=0;exitDy=0;exitPerimeter=0;entryX=-0.021;entryY=0.15;entryDx=0;entryDy=0;entryPerimeter=0;strokeColor=#000000;" parent="1" source="A1JoY7GcFFuIIpcnc2Ma-21" target="pp8-QFKgKfyrIBCOwYfq-248" edge="1">
                    <mxGeometry width="50" height="50" relative="1" as="geometry">
                        <mxPoint x="570" y="1090" as="sourcePoint"/>
                        <mxPoint x="620" y="1040" as="targetPoint"/>
                    </mxGeometry>
                </mxCell>
                <mxCell id="A1JoY7GcFFuIIpcnc2Ma-34" value="" style="endArrow=classic;html=1;rounded=0;exitX=1.005;exitY=0.502;exitDx=0;exitDy=0;exitPerimeter=0;entryX=-0.021;entryY=0.15;entryDx=0;entryDy=0;entryPerimeter=0;strokeColor=#000000;" parent="1" edge="1">
                    <mxGeometry width="50" height="50" relative="1" as="geometry">
                        <mxPoint x="561" y="1160.5" as="sourcePoint"/>
                        <mxPoint x="599" y="1160.5" as="targetPoint"/>
                    </mxGeometry>
                </mxCell>
                <mxCell id="A1JoY7GcFFuIIpcnc2Ma-35" value="" style="endArrow=classic;html=1;rounded=0;exitX=1.005;exitY=0.502;exitDx=0;exitDy=0;exitPerimeter=0;entryX=-0.021;entryY=0.15;entryDx=0;entryDy=0;entryPerimeter=0;strokeColor=#000000;" parent="1" edge="1">
                    <mxGeometry width="50" height="50" relative="1" as="geometry">
                        <mxPoint x="561" y="1212.08" as="sourcePoint"/>
                        <mxPoint x="599" y="1212.08" as="targetPoint"/>
                    </mxGeometry>
                </mxCell>
                <mxCell id="A1JoY7GcFFuIIpcnc2Ma-37" value="" style="endArrow=classic;html=1;rounded=0;exitX=1.009;exitY=0.492;exitDx=0;exitDy=0;exitPerimeter=0;entryX=-0.021;entryY=0.15;entryDx=0;entryDy=0;entryPerimeter=0;strokeColor=#000000;" parent="1" source="pp8-QFKgKfyrIBCOwYfq-248" edge="1">
                    <mxGeometry width="50" height="50" relative="1" as="geometry">
                        <mxPoint x="643" y="1158.89" as="sourcePoint"/>
                        <mxPoint x="681" y="1158.89" as="targetPoint"/>
                    </mxGeometry>
                </mxCell>
                <mxCell id="A1JoY7GcFFuIIpcnc2Ma-39" value="" style="endArrow=classic;html=1;rounded=0;exitX=1.009;exitY=0.492;exitDx=0;exitDy=0;exitPerimeter=0;entryX=-0.021;entryY=0.15;entryDx=0;entryDy=0;entryPerimeter=0;strokeColor=#000000;" parent="1" edge="1">
                    <mxGeometry width="50" height="50" relative="1" as="geometry">
                        <mxPoint x="640" y="1212.25" as="sourcePoint"/>
                        <mxPoint x="681" y="1212.14" as="targetPoint"/>
                    </mxGeometry>
                </mxCell>
                <mxCell id="A1JoY7GcFFuIIpcnc2Ma-40" value="" style="endArrow=classic;html=1;rounded=0;exitX=0.992;exitY=0.474;exitDx=0;exitDy=0;exitPerimeter=0;edgeStyle=orthogonalEdgeStyle;strokeColor=#000000;" parent="1" source="A1JoY7GcFFuIIpcnc2Ma-27" edge="1">
                    <mxGeometry width="50" height="50" relative="1" as="geometry">
                        <mxPoint x="719" y="1158.25" as="sourcePoint"/>
                        <mxPoint x="760" y="1159" as="targetPoint"/>
                    </mxGeometry>
                </mxCell>
                <mxCell id="A1JoY7GcFFuIIpcnc2Ma-41" value="" style="endArrow=classic;html=1;rounded=0;exitX=0.992;exitY=0.474;exitDx=0;exitDy=0;exitPerimeter=0;entryX=-0.021;entryY=0.15;entryDx=0;entryDy=0;entryPerimeter=0;strokeColor=#000000;" parent="1" edge="1">
                    <mxGeometry width="50" height="50" relative="1" as="geometry">
                        <mxPoint x="721" y="1212.14" as="sourcePoint"/>
                        <mxPoint x="760" y="1212.2800000000002" as="targetPoint"/>
                    </mxGeometry>
                </mxCell>
                <mxCell id="A1JoY7GcFFuIIpcnc2Ma-42" value="" style="endArrow=classic;html=1;rounded=0;entryX=-0.021;entryY=0.15;entryDx=0;entryDy=0;entryPerimeter=0;strokeColor=#000000;" parent="1" edge="1">
                    <mxGeometry width="50" height="50" relative="1" as="geometry">
                        <mxPoint x="800" y="1158" as="sourcePoint"/>
                        <mxPoint x="840" y="1158.01" as="targetPoint"/>
                    </mxGeometry>
                </mxCell>
                <mxCell id="A1JoY7GcFFuIIpcnc2Ma-43" value="" style="endArrow=classic;html=1;rounded=0;entryX=-0.021;entryY=0.15;entryDx=0;entryDy=0;entryPerimeter=0;strokeColor=#000000;" parent="1" edge="1">
                    <mxGeometry width="50" height="50" relative="1" as="geometry">
                        <mxPoint x="800" y="1212.17" as="sourcePoint"/>
                        <mxPoint x="840" y="1212.18" as="targetPoint"/>
                    </mxGeometry>
                </mxCell>
                <mxCell id="A1JoY7GcFFuIIpcnc2Ma-44" value="&lt;b&gt;Priv Buffer&lt;/b&gt;" style="rounded=1;whiteSpace=wrap;html=1;fillColor=#f8cecc;strokeColor=#000000;" parent="1" vertex="1">
                    <mxGeometry x="1095" y="1165.5" width="90" height="54" as="geometry"/>
                </mxCell>
                <mxCell id="-GU3EejLwVTsNvYZy9xl-16" value="" style="edgeStyle=orthogonalEdgeStyle;rounded=0;orthogonalLoop=1;jettySize=auto;html=1;strokeColor=#000000;" parent="1" source="-GU3EejLwVTsNvYZy9xl-2" edge="1">
                    <mxGeometry relative="1" as="geometry">
                        <mxPoint x="400" y="1400" as="targetPoint"/>
                    </mxGeometry>
                </mxCell>
                <mxCell id="-GU3EejLwVTsNvYZy9xl-2" value="&lt;b style=&quot;font-size: 16px;&quot;&gt;TLB Hit&lt;/b&gt;" style="rounded=0;whiteSpace=wrap;html=1;fillColor=#cdeb8b;strokeColor=#000000;fontSize=16;" parent="1" vertex="1">
                    <mxGeometry x="240" y="1380" width="100" height="40" as="geometry"/>
                </mxCell>
                <mxCell id="-GU3EejLwVTsNvYZy9xl-3" value="" style="endArrow=none;html=1;rounded=0;strokeColor=#000000;" parent="1" edge="1">
                    <mxGeometry width="50" height="50" relative="1" as="geometry">
                        <mxPoint x="-185" y="1445" as="sourcePoint"/>
                        <mxPoint x="-175" y="1435" as="targetPoint"/>
                    </mxGeometry>
                </mxCell>
                <mxCell id="-GU3EejLwVTsNvYZy9xl-4" value="2" style="text;html=1;align=center;verticalAlign=middle;resizable=0;points=[];autosize=1;strokeColor=#000000;fillColor=none;" parent="1" vertex="1">
                    <mxGeometry x="-194" y="1436" width="30" height="30" as="geometry"/>
                </mxCell>
                <mxCell id="-GU3EejLwVTsNvYZy9xl-5" value="raddr" style="text;html=1;align=center;verticalAlign=middle;resizable=0;points=[];autosize=1;strokeColor=#000000;fillColor=none;fontStyle=1;fontSize=14;" parent="1" vertex="1">
                    <mxGeometry x="-219" y="1409.5" width="60" height="30" as="geometry"/>
                </mxCell>
                <mxCell id="-GU3EejLwVTsNvYZy9xl-6" value="" style="endArrow=classic;html=1;rounded=0;edgeStyle=orthogonalEdgeStyle;entryX=-0.012;entryY=0.488;entryDx=0;entryDy=0;entryPerimeter=0;strokeColor=#000000;" parent="1" target="pp8-QFKgKfyrIBCOwYfq-182" edge="1">
                    <mxGeometry width="50" height="50" relative="1" as="geometry">
                        <mxPoint x="-239" y="1400" as="sourcePoint"/>
                        <mxPoint x="-158.8800000000001" y="1480.14" as="targetPoint"/>
                        <Array as="points">
                            <mxPoint x="-220" y="1400"/>
                            <mxPoint x="-220" y="1439"/>
                            <mxPoint x="-161" y="1439"/>
                        </Array>
                    </mxGeometry>
                </mxCell>
                <mxCell id="-GU3EejLwVTsNvYZy9xl-9" value="rdata" style="text;html=1;align=center;verticalAlign=middle;resizable=0;points=[];autosize=1;strokeColor=#000000;fillColor=none;fontStyle=1;fontSize=14;" parent="1" vertex="1">
                    <mxGeometry x="-37" y="1433.5" width="60" height="30" as="geometry"/>
                </mxCell>
                <mxCell id="-GU3EejLwVTsNvYZy9xl-10" value="" style="endArrow=none;html=1;rounded=0;strokeColor=#000000;" parent="1" edge="1">
                    <mxGeometry width="50" height="50" relative="1" as="geometry">
                        <mxPoint x="19" y="1444" as="sourcePoint"/>
                        <mxPoint x="29" y="1434" as="targetPoint"/>
                    </mxGeometry>
                </mxCell>
                <mxCell id="-GU3EejLwVTsNvYZy9xl-11" value="2" style="text;html=1;align=center;verticalAlign=middle;resizable=0;points=[];autosize=1;strokeColor=#000000;fillColor=none;" parent="1" vertex="1">
                    <mxGeometry x="10" y="1435" width="30" height="30" as="geometry"/>
                </mxCell>
                <mxCell id="-GU3EejLwVTsNvYZy9xl-21" value="" style="edgeStyle=orthogonalEdgeStyle;rounded=0;orthogonalLoop=1;jettySize=auto;html=1;strokeColor=#000000;" parent="1" source="pp8-QFKgKfyrIBCOwYfq-255" target="-GU3EejLwVTsNvYZy9xl-2" edge="1">
                    <mxGeometry relative="1" as="geometry"/>
                </mxCell>
                <mxCell id="pp8-QFKgKfyrIBCOwYfq-255" value="&lt;font style=&quot;font-size: 16px;&quot;&gt;&lt;b&gt;+&lt;/b&gt;&lt;/font&gt;" style="ellipse;whiteSpace=wrap;html=1;aspect=fixed;fillColor=#fad9d5;strokeColor=#000000;" parent="1" vertex="1">
                    <mxGeometry x="159.5" y="1380" width="40" height="40" as="geometry"/>
                </mxCell>
                <mxCell id="-GU3EejLwVTsNvYZy9xl-19" value="" style="endArrow=classic;html=1;rounded=0;exitX=0.994;exitY=0.247;exitDx=0;exitDy=0;exitPerimeter=0;edgeStyle=orthogonalEdgeStyle;entryX=0.087;entryY=0.204;entryDx=0;entryDy=0;entryPerimeter=0;strokeColor=#000000;" parent="1" source="pp8-QFKgKfyrIBCOwYfq-161" target="pp8-QFKgKfyrIBCOwYfq-255" edge="1">
                    <mxGeometry width="50" height="50" relative="1" as="geometry">
                        <mxPoint x="110" y="1400" as="sourcePoint"/>
                        <mxPoint x="160" y="1350" as="targetPoint"/>
                    </mxGeometry>
                </mxCell>
                <mxCell id="-GU3EejLwVTsNvYZy9xl-20" value="" style="endArrow=classic;html=1;rounded=0;entryX=0.129;entryY=0.831;entryDx=0;entryDy=0;entryPerimeter=0;edgeStyle=orthogonalEdgeStyle;strokeColor=#000000;" parent="1" target="pp8-QFKgKfyrIBCOwYfq-255" edge="1">
                    <mxGeometry width="50" height="50" relative="1" as="geometry">
                        <mxPoint x="80" y="1440" as="sourcePoint"/>
                        <mxPoint x="190" y="1430" as="targetPoint"/>
                        <Array as="points">
                            <mxPoint x="120" y="1440"/>
                            <mxPoint x="120" y="1413"/>
                        </Array>
                    </mxGeometry>
                </mxCell>
                <mxCell id="-GU3EejLwVTsNvYZy9xl-22" value="rf_rdata1" style="text;html=1;align=center;verticalAlign=middle;resizable=0;points=[];autosize=1;strokeColor=#000000;fillColor=none;fontStyle=1;fontSize=14;" parent="1" vertex="1">
                    <mxGeometry x="75" y="1330.5" width="80" height="30" as="geometry"/>
                </mxCell>
                <mxCell id="-GU3EejLwVTsNvYZy9xl-23" value="imm" style="text;html=1;align=center;verticalAlign=middle;resizable=0;points=[];autosize=1;strokeColor=#000000;fillColor=none;fontStyle=1;fontSize=14;" parent="1" vertex="1">
                    <mxGeometry x="84.5" y="1433.5" width="50" height="30" as="geometry"/>
                </mxCell>
                <mxCell id="-GU3EejLwVTsNvYZy9xl-24" value="vaddr" style="text;html=1;align=center;verticalAlign=middle;resizable=0;points=[];autosize=1;strokeColor=#000000;fillColor=none;fontStyle=1;fontSize=14;" parent="1" vertex="1">
                    <mxGeometry x="187" y="1373" width="60" height="30" as="geometry"/>
                </mxCell>
                <mxCell id="-GU3EejLwVTsNvYZy9xl-25" value="hit_idx" style="text;html=1;align=center;verticalAlign=middle;resizable=0;points=[];autosize=1;strokeColor=#000000;fillColor=none;fontStyle=1;fontSize=14;" parent="1" vertex="1">
                    <mxGeometry x="334.5" y="1374" width="70" height="30" as="geometry"/>
                </mxCell>
                <mxCell id="-GU3EejLwVTsNvYZy9xl-28" value="" style="group;strokeColor=#000000;" parent="1" vertex="1" connectable="0">
                    <mxGeometry x="680" y="600" width="40" height="160" as="geometry"/>
                </mxCell>
                <mxCell id="-GU3EejLwVTsNvYZy9xl-29" value="" style="rounded=0;whiteSpace=wrap;html=1;fillColor=#f5f5f5;fontColor=#333333;strokeColor=#000000;" parent="-GU3EejLwVTsNvYZy9xl-28" vertex="1">
                    <mxGeometry width="40" height="160" as="geometry"/>
                </mxCell>
                <mxCell id="-GU3EejLwVTsNvYZy9xl-30" value="" style="triangle;whiteSpace=wrap;html=1;rotation=-90;fillColor=#647687;fontColor=#ffffff;strokeColor=#000000;" parent="-GU3EejLwVTsNvYZy9xl-28" vertex="1">
                    <mxGeometry y="120" width="40" height="40" as="geometry"/>
                </mxCell>
                <mxCell id="doHpjSn7USlp-W5Fj0E6-4" style="edgeStyle=orthogonalEdgeStyle;rounded=0;orthogonalLoop=1;jettySize=auto;html=1;entryX=-0.019;entryY=0.342;entryDx=0;entryDy=0;entryPerimeter=0;strokeColor=#000000;" parent="1" target="A1JoY7GcFFuIIpcnc2Ma-22" edge="1">
                    <mxGeometry relative="1" as="geometry">
                        <mxPoint x="440" y="1120" as="sourcePoint"/>
                        <mxPoint x="528" y="1109" as="targetPoint"/>
                        <Array as="points">
                            <mxPoint x="480" y="1120"/>
                            <mxPoint x="480" y="1154"/>
                        </Array>
                    </mxGeometry>
                </mxCell>
                <mxCell id="doHpjSn7USlp-W5Fj0E6-5" style="edgeStyle=orthogonalEdgeStyle;rounded=0;orthogonalLoop=1;jettySize=auto;html=1;entryX=-0.012;entryY=0.369;entryDx=0;entryDy=0;entryPerimeter=0;exitX=0.996;exitY=0.25;exitDx=0;exitDy=0;exitPerimeter=0;strokeColor=#000000;" parent="1" source="pp8-QFKgKfyrIBCOwYfq-198" target="A1JoY7GcFFuIIpcnc2Ma-23" edge="1">
                    <mxGeometry relative="1" as="geometry">
                        <mxPoint x="450" y="1130" as="sourcePoint"/>
                        <mxPoint x="529" y="1164" as="targetPoint"/>
                        <Array as="points">
                            <mxPoint x="480" y="1120"/>
                            <mxPoint x="480" y="1207"/>
                        </Array>
                    </mxGeometry>
                </mxCell>
                <mxCell id="doHpjSn7USlp-W5Fj0E6-6" style="edgeStyle=orthogonalEdgeStyle;rounded=0;orthogonalLoop=1;jettySize=auto;html=1;exitX=1;exitY=0.75;exitDx=0;exitDy=0;entryX=-0.007;entryY=0.752;entryDx=0;entryDy=0;entryPerimeter=0;strokeColor=#000000;" parent="1" edge="1">
                    <mxGeometry relative="1" as="geometry">
                        <mxPoint x="440" y="1200.5" as="sourcePoint"/>
                        <mxPoint x="519.7200000000003" y="1169.324" as="targetPoint"/>
                        <Array as="points">
                            <mxPoint x="490" y="1201"/>
                            <mxPoint x="490" y="1170"/>
                            <mxPoint x="520" y="1170"/>
                        </Array>
                    </mxGeometry>
                </mxCell>
                <mxCell id="doHpjSn7USlp-W5Fj0E6-7" style="edgeStyle=orthogonalEdgeStyle;rounded=0;orthogonalLoop=1;jettySize=auto;html=1;entryX=-0.018;entryY=0.712;entryDx=0;entryDy=0;entryPerimeter=0;strokeColor=#000000;" parent="1" edge="1">
                    <mxGeometry relative="1" as="geometry">
                        <mxPoint x="439.72" y="1200.5" as="sourcePoint"/>
                        <mxPoint x="519.0000000000002" y="1220.594" as="targetPoint"/>
                        <Array as="points">
                            <mxPoint x="490" y="1201"/>
                            <mxPoint x="490" y="1221"/>
                        </Array>
                    </mxGeometry>
                </mxCell>
                <mxCell id="doHpjSn7USlp-W5Fj0E6-8" style="edgeStyle=orthogonalEdgeStyle;rounded=0;orthogonalLoop=1;jettySize=auto;html=1;strokeColor=#000000;" parent="1" edge="1">
                    <mxGeometry relative="1" as="geometry">
                        <mxPoint x="800" y="814" as="targetPoint"/>
                        <Array as="points">
                            <mxPoint x="1040" y="1400"/>
                            <mxPoint x="1040" y="960"/>
                            <mxPoint x="780" y="960"/>
                            <mxPoint x="780" y="814"/>
                        </Array>
                        <mxPoint x="1010" y="1400" as="sourcePoint"/>
                    </mxGeometry>
                </mxCell>
                <mxCell id="doHpjSn7USlp-W5Fj0E6-9" value="" style="shape=waypoint;sketch=0;fillStyle=solid;size=6;pointerEvents=1;points=[];fillColor=none;resizable=0;rotatable=0;perimeter=centerPerimeter;snapToPoint=1;strokeColor=#000000;" parent="1" vertex="1">
                    <mxGeometry x="1030.5" y="949.5" width="20" height="20" as="geometry"/>
                </mxCell>
                <mxCell id="doHpjSn7USlp-W5Fj0E6-10" style="edgeStyle=orthogonalEdgeStyle;rounded=0;orthogonalLoop=1;jettySize=auto;html=1;exitX=1;exitY=0.5;exitDx=0;exitDy=0;fontColor=#FFFF00;fillColor=#cdeb8b;strokeColor=#000000;" parent="1" edge="1">
                    <mxGeometry relative="1" as="geometry">
                        <Array as="points">
                            <mxPoint x="920" y="781"/>
                            <mxPoint x="930" y="781"/>
                            <mxPoint x="930" y="481"/>
                            <mxPoint x="460" y="481"/>
                            <mxPoint x="460" y="1280"/>
                            <mxPoint x="178" y="1280"/>
                        </Array>
                        <mxPoint x="920" y="779" as="sourcePoint"/>
                        <mxPoint x="178" y="1380" as="targetPoint"/>
                    </mxGeometry>
                </mxCell>
                <mxCell id="doHpjSn7USlp-W5Fj0E6-11" value="&lt;font color=&quot;#ff0000&quot; style=&quot;font-size: 12px;&quot;&gt;forward&lt;/font&gt;" style="text;html=1;align=center;verticalAlign=middle;resizable=0;points=[];autosize=1;strokeColor=#000000;fillColor=none;fontStyle=1;fontSize=12;" parent="1" vertex="1">
                    <mxGeometry x="173" y="1320" width="70" height="30" as="geometry"/>
                </mxCell>
                <mxCell id="doHpjSn7USlp-W5Fj0E6-12" value="" style="endArrow=none;html=1;rounded=0;strokeColor=#000000;fontColor=#FF0000;" parent="1" edge="1">
                    <mxGeometry width="50" height="50" relative="1" as="geometry">
                        <mxPoint x="173" y="1352.5" as="sourcePoint"/>
                        <mxPoint x="183" y="1342.5" as="targetPoint"/>
                    </mxGeometry>
                </mxCell>
                <mxCell id="doHpjSn7USlp-W5Fj0E6-13" value="2" style="text;html=1;align=center;verticalAlign=middle;resizable=0;points=[];autosize=1;strokeColor=#000000;fillColor=none;fontColor=#FF0000;" parent="1" vertex="1">
                    <mxGeometry x="173" y="1337" width="30" height="30" as="geometry"/>
                </mxCell>
                <mxCell id="doHpjSn7USlp-W5Fj0E6-15" value="" style="shape=waypoint;sketch=0;fillStyle=solid;size=6;pointerEvents=1;points=[];fillColor=none;resizable=0;rotatable=0;perimeter=centerPerimeter;snapToPoint=1;strokeColor=#000000;" parent="1" vertex="1">
                    <mxGeometry x="450" y="955" width="20" height="20" as="geometry"/>
                </mxCell>
                <mxCell id="doHpjSn7USlp-W5Fj0E6-16" value="" style="shape=waypoint;sketch=0;fillStyle=solid;size=6;pointerEvents=1;points=[];fillColor=none;resizable=0;rotatable=0;perimeter=centerPerimeter;snapToPoint=1;strokeColor=#000000;" parent="1" vertex="1">
                    <mxGeometry x="470.5" y="1110.5" width="20" height="20" as="geometry"/>
                </mxCell>
                <mxCell id="doHpjSn7USlp-W5Fj0E6-18" value="" style="shape=waypoint;sketch=0;fillStyle=solid;size=6;pointerEvents=1;points=[];fillColor=none;resizable=0;rotatable=0;perimeter=centerPerimeter;snapToPoint=1;strokeColor=#000000;" parent="1" vertex="1">
                    <mxGeometry x="470" y="1144.5" width="20" height="20" as="geometry"/>
                </mxCell>
                <mxCell id="doHpjSn7USlp-W5Fj0E6-19" value="" style="shape=waypoint;sketch=0;fillStyle=solid;size=6;pointerEvents=1;points=[];fillColor=none;resizable=0;rotatable=0;perimeter=centerPerimeter;snapToPoint=1;strokeColor=#000000;" parent="1" vertex="1">
                    <mxGeometry x="479.5" y="1160.75" width="20" height="20" as="geometry"/>
                </mxCell>
                <mxCell id="doHpjSn7USlp-W5Fj0E6-20" value="" style="shape=waypoint;sketch=0;fillStyle=solid;size=6;pointerEvents=1;points=[];fillColor=none;resizable=0;rotatable=0;perimeter=centerPerimeter;snapToPoint=1;strokeColor=#000000;" parent="1" vertex="1">
                    <mxGeometry x="480" y="1189.75" width="20" height="20" as="geometry"/>
                </mxCell>
                <mxCell id="doHpjSn7USlp-W5Fj0E6-25" style="edgeStyle=orthogonalEdgeStyle;rounded=0;orthogonalLoop=1;jettySize=auto;html=1;exitX=1;exitY=0.5;exitDx=0;exitDy=0;entryX=0;entryY=0.5;entryDx=0;entryDy=0;strokeColor=#000000;" parent="1" source="doHpjSn7USlp-W5Fj0E6-26" edge="1">
                    <mxGeometry relative="1" as="geometry">
                        <mxPoint x="399.5" y="678.5" as="targetPoint"/>
                    </mxGeometry>
                </mxCell>
                <mxCell id="doHpjSn7USlp-W5Fj0E6-26" value="&lt;b style=&quot;font-size: 16px;&quot;&gt;RegFile Read&lt;/b&gt;" style="rounded=1;whiteSpace=wrap;html=1;fillColor=#fff2cc;strokeColor=#000000;fontSize=16;" parent="1" vertex="1">
                    <mxGeometry x="159.5" y="638.5" width="160" height="80" as="geometry"/>
                </mxCell>
                <mxCell id="doHpjSn7USlp-W5Fj0E6-27" style="edgeStyle=orthogonalEdgeStyle;rounded=0;orthogonalLoop=1;jettySize=auto;html=1;exitX=1;exitY=0.5;exitDx=0;exitDy=0;entryX=0;entryY=0.5;entryDx=0;entryDy=0;strokeColor=#000000;" parent="1" target="doHpjSn7USlp-W5Fj0E6-26" edge="1">
                    <mxGeometry relative="1" as="geometry">
                        <mxPoint x="79.5" y="678.5" as="sourcePoint"/>
                    </mxGeometry>
                </mxCell>
                <mxCell id="doHpjSn7USlp-W5Fj0E6-28" value="raddr" style="text;html=1;align=center;verticalAlign=middle;resizable=0;points=[];autosize=1;strokeColor=#000000;fillColor=none;fontStyle=1;fontSize=14;" parent="1" vertex="1">
                    <mxGeometry x="86.5" y="654.5" width="60" height="30" as="geometry"/>
                </mxCell>
                <mxCell id="doHpjSn7USlp-W5Fj0E6-29" value="" style="endArrow=none;html=1;rounded=0;strokeColor=#000000;" parent="1" edge="1">
                    <mxGeometry width="50" height="50" relative="1" as="geometry">
                        <mxPoint x="138.5" y="682.5" as="sourcePoint"/>
                        <mxPoint x="148.5" y="672.5" as="targetPoint"/>
                    </mxGeometry>
                </mxCell>
                <mxCell id="doHpjSn7USlp-W5Fj0E6-30" value="2" style="text;html=1;align=center;verticalAlign=middle;resizable=0;points=[];autosize=1;strokeColor=#000000;fillColor=none;" parent="1" vertex="1">
                    <mxGeometry x="129.5" y="673.5" width="30" height="30" as="geometry"/>
                </mxCell>
                <mxCell id="doHpjSn7USlp-W5Fj0E6-31" value="rdata" style="text;html=1;align=center;verticalAlign=middle;resizable=0;points=[];autosize=1;strokeColor=#000000;fillColor=none;fontStyle=1;fontSize=14;" parent="1" vertex="1">
                    <mxGeometry x="323" y="655.5" width="60" height="30" as="geometry"/>
                </mxCell>
                <mxCell id="doHpjSn7USlp-W5Fj0E6-32" value="" style="endArrow=none;html=1;rounded=0;strokeColor=#000000;" parent="1" edge="1">
                    <mxGeometry width="50" height="50" relative="1" as="geometry">
                        <mxPoint x="375" y="683.5" as="sourcePoint"/>
                        <mxPoint x="385" y="673.5" as="targetPoint"/>
                    </mxGeometry>
                </mxCell>
                <mxCell id="doHpjSn7USlp-W5Fj0E6-33" value="2" style="text;html=1;align=center;verticalAlign=middle;resizable=0;points=[];autosize=1;strokeColor=#000000;fillColor=none;" parent="1" vertex="1">
                    <mxGeometry x="366" y="674.5" width="30" height="30" as="geometry"/>
                </mxCell>
                <mxCell id="17" value="" style="edgeStyle=none;html=1;entryX=0.626;entryY=0.516;entryDx=0;entryDy=0;entryPerimeter=0;strokeColor=#000000;fontColor=#000000;" edge="1" parent="1" source="15" target="16">
                    <mxGeometry relative="1" as="geometry"/>
                </mxCell>
                <mxCell id="19" value="&lt;font style=&quot;font-size: 12px;&quot; color=&quot;#000000&quot;&gt;pc&lt;/font&gt;" style="text;strokeColor=none;fillColor=none;html=1;fontSize=24;fontStyle=1;verticalAlign=middle;align=center;fontColor=#FFFFFF;" vertex="1" parent="1">
                    <mxGeometry x="-791" y="130" width="31" height="15" as="geometry"/>
                </mxCell>
                <mxCell id="21" value="" style="group" vertex="1" connectable="0" parent="1">
                    <mxGeometry x="-791" y="42" width="131" height="90" as="geometry"/>
                </mxCell>
                <mxCell id="pp8-QFKgKfyrIBCOwYfq-3" value="&lt;b style=&quot;&quot;&gt;&lt;font color=&quot;#000000&quot; style=&quot;font-size: 18px;&quot;&gt;PreFetch&lt;/font&gt;&lt;/b&gt;" style="rounded=1;whiteSpace=wrap;html=1;fillColor=#fff2cc;strokeColor=#000000;direction=east;flipV=0;fontSize=14;" parent="21" vertex="1">
                    <mxGeometry width="120" height="80" as="geometry"/>
                </mxCell>
                <mxCell id="15" value="" style="shape=waypoint;sketch=0;fillStyle=solid;size=6;pointerEvents=1;points=[];fillColor=none;resizable=0;rotatable=0;perimeter=centerPerimeter;snapToPoint=1;strokeColor=#000000;fontColor=#000000;" vertex="1" parent="21">
                    <mxGeometry x="21" y="70" width="20" height="20" as="geometry"/>
                </mxCell>
                <mxCell id="27" value="" style="shape=waypoint;sketch=0;fillStyle=solid;size=6;pointerEvents=1;points=[];fillColor=none;resizable=0;rotatable=0;perimeter=centerPerimeter;snapToPoint=1;strokeColor=#000000;fontSize=12;fontColor=#000000;" vertex="1" parent="21">
                    <mxGeometry x="50" y="70" width="20" height="20" as="geometry"/>
                </mxCell>
                <mxCell id="38" value="" style="shape=waypoint;sketch=0;fillStyle=solid;size=6;pointerEvents=1;points=[];fillColor=none;resizable=0;rotatable=0;perimeter=centerPerimeter;snapToPoint=1;strokeColor=#000000;fontSize=12;fontColor=#000000;" vertex="1" parent="21">
                    <mxGeometry x="111" y="30" width="20" height="20" as="geometry"/>
                </mxCell>
                <mxCell id="29" value="" style="group" vertex="1" connectable="0" parent="1">
                    <mxGeometry x="-826" y="155" width="201.00000000000003" height="165" as="geometry"/>
                </mxCell>
                <mxCell id="22" value="" style="group" vertex="1" connectable="0" parent="29">
                    <mxGeometry width="201.00000000000003" height="165" as="geometry"/>
                </mxCell>
                <mxCell id="14" value="" style="group" vertex="1" connectable="0" parent="22">
                    <mxGeometry y="11" width="201.00000000000003" height="154" as="geometry"/>
                </mxCell>
                <mxCell id="pp8-QFKgKfyrIBCOwYfq-8" value="&lt;b&gt;&lt;font color=&quot;#000000&quot; style=&quot;font-size: 18px;&quot;&gt;Predict&lt;/font&gt;&lt;/b&gt;" style="rounded=1;whiteSpace=wrap;html=1;fillColor=#d0cee2;strokeColor=#000000;direction=east;flipV=0;" parent="14" vertex="1">
                    <mxGeometry y="-1" width="201" height="141" as="geometry"/>
                </mxCell>
                <mxCell id="8" value="" style="group" vertex="1" connectable="0" parent="14">
                    <mxGeometry x="38.378640776699015" y="29" width="117.08737864077665" height="20" as="geometry"/>
                </mxCell>
                <mxCell id="9" value="&lt;font color=&quot;#000000&quot;&gt;BHT、PHT&lt;/font&gt;" style="rounded=0;whiteSpace=wrap;html=1;fillColor=#cdeb8b;strokeColor=#000000;direction=east;flipV=0;fontStyle=1;fontSize=16;" vertex="1" parent="8">
                    <mxGeometry width="117.08737864077665" height="20" as="geometry"/>
                </mxCell>
                <mxCell id="10" value="" style="triangle;whiteSpace=wrap;html=1;rotation=0;fillColor=#647687;fontColor=#ffffff;strokeColor=#000000;direction=east;" vertex="1" parent="8">
                    <mxGeometry y="1" width="11.70873786407767" height="18" as="geometry"/>
                </mxCell>
                <mxCell id="11" value="" style="group" vertex="1" connectable="0" parent="14">
                    <mxGeometry x="38.378640776699015" y="89" width="117.08737864077665" height="20" as="geometry"/>
                </mxCell>
                <mxCell id="12" value="&lt;font color=&quot;#000000&quot;&gt;BTB、RAS&lt;/font&gt;" style="rounded=0;whiteSpace=wrap;html=1;fillColor=#cdeb8b;strokeColor=#000000;direction=east;flipV=0;fontStyle=1;fontSize=16;" vertex="1" parent="11">
                    <mxGeometry width="117.08737864077665" height="20" as="geometry"/>
                </mxCell>
                <mxCell id="13" value="" style="triangle;whiteSpace=wrap;html=1;rotation=0;fillColor=#647687;fontColor=#ffffff;strokeColor=#000000;direction=east;" vertex="1" parent="11">
                    <mxGeometry y="1" width="11.70873786407767" height="18" as="geometry"/>
                </mxCell>
                <mxCell id="66" value="" style="shape=waypoint;sketch=0;fillStyle=solid;size=6;pointerEvents=1;points=[];fillColor=none;resizable=0;rotatable=0;perimeter=centerPerimeter;snapToPoint=1;strokeColor=#000000;fontSize=12;fontColor=#000000;" vertex="1" parent="14">
                    <mxGeometry x="86.92" y="129" width="20" height="20" as="geometry"/>
                </mxCell>
                <mxCell id="16" value="" style="shape=waypoint;sketch=0;fillStyle=solid;size=6;pointerEvents=1;points=[];fillColor=none;resizable=0;rotatable=0;perimeter=centerPerimeter;snapToPoint=1;strokeColor=#000000;fontColor=#000000;" vertex="1" parent="22">
                    <mxGeometry x="55.66019417475728" width="20" height="20" as="geometry"/>
                </mxCell>
                <mxCell id="28" value="" style="shape=waypoint;sketch=0;fillStyle=solid;size=6;pointerEvents=1;points=[];fillColor=none;resizable=0;rotatable=0;perimeter=centerPerimeter;snapToPoint=1;strokeColor=#000000;fontSize=12;fontColor=#000000;" vertex="1" parent="29">
                    <mxGeometry x="85.52427184466018" y="1" width="20" height="20" as="geometry"/>
                </mxCell>
                <mxCell id="31" style="edgeStyle=none;html=1;entryX=0.438;entryY=0.422;entryDx=0;entryDy=0;entryPerimeter=0;labelBackgroundColor=none;strokeColor=#000000;fontSize=12;fontColor=#000000;" edge="1" parent="1" source="28" target="27">
                    <mxGeometry relative="1" as="geometry"/>
                </mxCell>
                <mxCell id="32" value="&lt;font style=&quot;font-size: 12px;&quot; color=&quot;#000000&quot;&gt;npc(later)&lt;/font&gt;" style="text;strokeColor=none;fillColor=none;html=1;fontSize=24;fontStyle=1;verticalAlign=middle;align=center;fontColor=#FFFFFF;" vertex="1" parent="1">
                    <mxGeometry x="-712" y="130" width="31" height="15" as="geometry"/>
                </mxCell>
                <mxCell id="40" style="edgeStyle=none;html=1;entryX=0.405;entryY=0.427;entryDx=0;entryDy=0;entryPerimeter=0;labelBackgroundColor=none;strokeColor=#000000;fontSize=12;fontColor=#000000;" edge="1" parent="1" source="38" target="37">
                    <mxGeometry relative="1" as="geometry"/>
                </mxCell>
                <mxCell id="44" value="" style="group" vertex="1" connectable="0" parent="1">
                    <mxGeometry x="-600" y="40" width="140" height="89" as="geometry"/>
                </mxCell>
                <mxCell id="39" value="" style="group" vertex="1" connectable="0" parent="44">
                    <mxGeometry width="129" height="89" as="geometry"/>
                </mxCell>
                <mxCell id="20" value="&lt;b style=&quot;&quot;&gt;&lt;font color=&quot;#000000&quot; style=&quot;font-size: 18px;&quot;&gt;Fetch&lt;/font&gt;&lt;/b&gt;" style="rounded=1;whiteSpace=wrap;html=1;fillColor=#fff2cc;strokeColor=#000000;direction=east;flipV=0;fontSize=14;" vertex="1" parent="39">
                    <mxGeometry x="9" width="120" height="80" as="geometry"/>
                </mxCell>
                <mxCell id="37" value="" style="shape=waypoint;sketch=0;fillStyle=solid;size=6;pointerEvents=1;points=[];fillColor=none;resizable=0;rotatable=0;perimeter=centerPerimeter;snapToPoint=1;strokeColor=#000000;fontSize=12;fontColor=#000000;" vertex="1" parent="39">
                    <mxGeometry y="32" width="20" height="20" as="geometry"/>
                </mxCell>
                <mxCell id="67" value="" style="shape=waypoint;sketch=0;fillStyle=solid;size=6;pointerEvents=1;points=[];fillColor=none;resizable=0;rotatable=0;perimeter=centerPerimeter;snapToPoint=1;strokeColor=#000000;fontSize=12;fontColor=#000000;" vertex="1" parent="39">
                    <mxGeometry x="59" y="69" width="20" height="20" as="geometry"/>
                </mxCell>
                <mxCell id="43" value="" style="shape=waypoint;sketch=0;fillStyle=solid;size=6;pointerEvents=1;points=[];fillColor=none;resizable=0;rotatable=0;perimeter=centerPerimeter;snapToPoint=1;strokeColor=#000000;fontSize=12;fontColor=#000000;" vertex="1" parent="44">
                    <mxGeometry x="120" y="30" width="20" height="20" as="geometry"/>
                </mxCell>
                <mxCell id="45" value="" style="group" vertex="1" connectable="0" parent="1">
                    <mxGeometry x="-390" y="-30.75" width="140" height="230.5" as="geometry"/>
                </mxCell>
                <mxCell id="pp8-QFKgKfyrIBCOwYfq-28" value="&lt;b style=&quot;font-size: 18px;&quot;&gt;&lt;font color=&quot;#000000&quot;&gt;PreDecode&lt;/font&gt;&lt;/b&gt;" style="rounded=1;whiteSpace=wrap;html=1;fillColor=#d0cee2;strokeColor=#000000;direction=east;flipV=0;fontSize=18;" parent="45" vertex="1">
                    <mxGeometry x="10" width="120" height="220" as="geometry"/>
                </mxCell>
                <mxCell id="50" value="&lt;b&gt;&lt;font color=&quot;#000000&quot;&gt;PreDec&lt;/font&gt;&lt;/b&gt;&lt;b style=&quot;font-size: 16px;&quot;&gt;&lt;font color=&quot;#000000&quot;&gt;&amp;nbsp;1&lt;/font&gt;&lt;/b&gt;" style="rounded=1;whiteSpace=wrap;html=1;fillColor=#B6BDC4;strokeColor=#000000;direction=east;flipV=0;fontSize=16;" vertex="1" parent="45">
                    <mxGeometry x="30" y="140.5487804878049" width="80" height="21.363414634146345" as="geometry"/>
                </mxCell>
                <mxCell id="53" value="&lt;b&gt;&lt;font color=&quot;#000000&quot;&gt;PreDec&lt;/font&gt;&lt;/b&gt;&lt;b style=&quot;font-size: 16px;&quot;&gt;&lt;font color=&quot;#000000&quot;&gt;&amp;nbsp;0&lt;/font&gt;&lt;/b&gt;" style="rounded=1;whiteSpace=wrap;html=1;fillColor=#b6bcc4;strokeColor=#000000;direction=east;flipV=0;fontSize=16;" vertex="1" parent="45">
                    <mxGeometry x="30" y="62.96585365853659" width="80" height="21.363414634146345" as="geometry"/>
                </mxCell>
                <mxCell id="54" value="" style="shape=waypoint;sketch=0;fillStyle=solid;size=6;pointerEvents=1;points=[];fillColor=none;resizable=0;rotatable=0;perimeter=centerPerimeter;snapToPoint=1;strokeColor=#000000;fontSize=12;fontColor=#000000;" vertex="1" parent="45">
                    <mxGeometry x="20" y="64.32560975609755" width="20" height="20" as="geometry"/>
                </mxCell>
                <mxCell id="56" value="" style="shape=waypoint;sketch=0;fillStyle=solid;size=6;pointerEvents=1;points=[];fillColor=none;resizable=0;rotatable=0;perimeter=centerPerimeter;snapToPoint=1;strokeColor=#000000;fontSize=12;fontColor=#000000;" vertex="1" parent="45">
                    <mxGeometry x="20" y="140.54853658536587" width="20" height="20" as="geometry"/>
                </mxCell>
                <mxCell id="89" value="" style="shape=waypoint;sketch=0;fillStyle=solid;size=6;pointerEvents=1;points=[];fillColor=none;resizable=0;rotatable=0;perimeter=centerPerimeter;snapToPoint=1;strokeColor=#000000;fontSize=12;fontColor=#000000;" vertex="1" parent="45">
                    <mxGeometry x="100" y="62.96560975609755" width="20" height="20" as="geometry"/>
                </mxCell>
                <mxCell id="90" value="" style="shape=waypoint;sketch=0;fillStyle=solid;size=6;pointerEvents=1;points=[];fillColor=none;resizable=0;rotatable=0;perimeter=centerPerimeter;snapToPoint=1;strokeColor=#000000;fontSize=12;fontColor=#000000;" vertex="1" parent="45">
                    <mxGeometry x="100" y="140.54853658536587" width="20" height="20" as="geometry"/>
                </mxCell>
                <mxCell id="69" value="" style="shape=waypoint;sketch=0;fillStyle=solid;size=6;pointerEvents=1;points=[];fillColor=none;resizable=0;rotatable=0;perimeter=centerPerimeter;snapToPoint=1;strokeColor=#000000;fontSize=12;fontColor=#000000;" vertex="1" parent="45">
                    <mxGeometry x="60" y="210.25609756097563" width="20" height="20" as="geometry"/>
                </mxCell>
                <mxCell id="62" value="" style="edgeStyle=elbowEdgeStyle;elbow=horizontal;endArrow=classic;html=1;curved=0;rounded=0;endSize=8;startSize=8;labelBackgroundColor=none;strokeColor=#000000;fontSize=12;fontColor=#000000;entryX=0.557;entryY=0.779;entryDx=0;entryDy=0;entryPerimeter=0;exitX=0.438;exitY=0.919;exitDx=0;exitDy=0;exitPerimeter=0;" edge="1" parent="1" source="43" target="56">
                    <mxGeometry width="50" height="50" relative="1" as="geometry">
                        <mxPoint x="-290" y="150" as="sourcePoint"/>
                        <mxPoint x="-240" y="100" as="targetPoint"/>
                    </mxGeometry>
                </mxCell>
                <mxCell id="63" value="" style="edgeStyle=elbowEdgeStyle;elbow=horizontal;endArrow=classic;html=1;curved=0;rounded=0;endSize=8;startSize=8;labelBackgroundColor=none;strokeColor=#000000;fontSize=12;fontColor=#000000;entryX=0.652;entryY=0.56;entryDx=0;entryDy=0;entryPerimeter=0;exitX=0.7;exitY=0.776;exitDx=0;exitDy=0;exitPerimeter=0;" edge="1" parent="1" source="43" target="54">
                    <mxGeometry width="50" height="50" relative="1" as="geometry">
                        <mxPoint x="-290" y="150" as="sourcePoint"/>
                        <mxPoint x="-240" y="100" as="targetPoint"/>
                    </mxGeometry>
                </mxCell>
                <mxCell id="65" value="&lt;font color=&quot;#000000&quot;&gt;&lt;span style=&quot;font-size: 18px;&quot;&gt;&lt;b&gt;ITLB&lt;/b&gt;&lt;/span&gt;&lt;/font&gt;" style="rounded=1;whiteSpace=wrap;html=1;fillColor=#ceea8d;strokeColor=#000000;direction=east;flipV=0;fontSize=14;" vertex="1" parent="1">
                    <mxGeometry x="-791" y="-51" width="321" height="61" as="geometry"/>
                </mxCell>
                <mxCell id="71" value="" style="edgeStyle=elbowEdgeStyle;elbow=vertical;endArrow=classic;html=1;curved=0;rounded=0;endSize=8;startSize=8;labelBackgroundColor=none;strokeColor=#FF3333;fontSize=12;fontColor=#000000;entryX=0.793;entryY=1.045;entryDx=0;entryDy=0;entryPerimeter=0;exitX=0.352;exitY=0.926;exitDx=0;exitDy=0;exitPerimeter=0;" edge="1" parent="1" source="69" target="67">
                    <mxGeometry width="50" height="50" relative="1" as="geometry">
                        <mxPoint x="-570" y="270" as="sourcePoint"/>
                        <mxPoint x="-520" y="220" as="targetPoint"/>
                        <Array as="points">
                            <mxPoint x="-430" y="340"/>
                        </Array>
                    </mxGeometry>
                </mxCell>
                <mxCell id="70" value="" style="edgeStyle=elbowEdgeStyle;elbow=vertical;endArrow=classic;html=1;curved=0;rounded=0;endSize=8;startSize=8;labelBackgroundColor=none;strokeColor=#FF3333;fontSize=12;fontColor=#000000;entryX=0.697;entryY=0.527;entryDx=0;entryDy=0;entryPerimeter=0;exitX=0.502;exitY=0.999;exitDx=0;exitDy=0;exitPerimeter=0;" edge="1" parent="1" source="pp8-QFKgKfyrIBCOwYfq-28" target="66">
                    <mxGeometry width="50" height="50" relative="1" as="geometry">
                        <mxPoint x="-570" y="270" as="sourcePoint"/>
                        <mxPoint x="-520" y="220" as="targetPoint"/>
                        <Array as="points">
                            <mxPoint x="-530" y="340"/>
                        </Array>
                    </mxGeometry>
                </mxCell>
                <mxCell id="78" value="" style="group" vertex="1" connectable="0" parent="1">
                    <mxGeometry x="-176" y="-40" width="145" height="344" as="geometry"/>
                </mxCell>
                <mxCell id="87" value="" style="group" vertex="1" connectable="0" parent="78">
                    <mxGeometry x="-5" width="150" height="344" as="geometry"/>
                </mxCell>
                <mxCell id="pp8-QFKgKfyrIBCOwYfq-33" value="&lt;b&gt;&lt;font color=&quot;#000000&quot; style=&quot;font-size: 24px;&quot;&gt;Inst&lt;br&gt;Buffer&lt;br&gt;&lt;/font&gt;&lt;/b&gt;" style="rounded=1;whiteSpace=wrap;html=1;fillColor=#b0e3e6;strokeColor=#000000;direction=east;flipV=0;" parent="87" vertex="1">
                    <mxGeometry x="9.52" y="10" width="90.48" height="220" as="geometry"/>
                </mxCell>
                <mxCell id="76" value="" style="shape=waypoint;sketch=0;fillStyle=solid;size=6;pointerEvents=1;points=[];fillColor=none;resizable=0;rotatable=0;perimeter=centerPerimeter;snapToPoint=1;strokeColor=#000000;fontSize=12;fontColor=#FF3333;" vertex="1" parent="87">
                    <mxGeometry y="116.53623188405797" width="20" height="20" as="geometry"/>
                </mxCell>
                <mxCell id="113" value="&lt;b style=&quot;font-size: 16px;&quot;&gt;&lt;font color=&quot;#000000&quot;&gt;predict&lt;/font&gt;&lt;/b&gt;" style="rounded=1;whiteSpace=wrap;html=1;fillColor=#b6bcc4;strokeColor=#000000;direction=east;flipV=0;fontSize=16;" vertex="1" parent="87">
                    <mxGeometry x="71" y="270" width="79" height="31.67" as="geometry"/>
                </mxCell>
                <mxCell id="73" value="&lt;font color=&quot;#ff3333&quot; style=&quot;font-size: 12px;&quot;&gt;flush&lt;/font&gt;" style="text;strokeColor=none;fillColor=none;html=1;fontSize=24;fontStyle=1;verticalAlign=middle;align=center;fontColor=#FFFFFF;" vertex="1" parent="1">
                    <mxGeometry x="-520" y="319" width="31" height="15" as="geometry"/>
                </mxCell>
                <mxCell id="80" value="" style="group" vertex="1" connectable="0" parent="1">
                    <mxGeometry y="-40" width="120" height="420" as="geometry"/>
                </mxCell>
                <mxCell id="pp8-QFKgKfyrIBCOwYfq-62" value="&lt;b&gt;&lt;font color=&quot;#000000&quot; style=&quot;font-size: 24px;&quot;&gt;Decode&lt;/font&gt;&lt;/b&gt;" style="rounded=1;whiteSpace=wrap;html=1;fillColor=#fff2cc;strokeColor=#000000;direction=east;flipV=0;" parent="80" vertex="1">
                    <mxGeometry width="120" height="240" as="geometry"/>
                </mxCell>
                <mxCell id="pp8-QFKgKfyrIBCOwYfq-64" value="&lt;b style=&quot;font-size: 16px;&quot;&gt;&lt;font color=&quot;#000000&quot;&gt;Decode 0&lt;/font&gt;&lt;/b&gt;" style="rounded=1;whiteSpace=wrap;html=1;fillColor=#fad7ac;strokeColor=#000000;direction=east;flipV=0;fontSize=16;" parent="80" vertex="1">
                    <mxGeometry x="20" y="32" width="80" height="38" as="geometry"/>
                </mxCell>
                <mxCell id="pp8-QFKgKfyrIBCOwYfq-66" value="&lt;b style=&quot;font-size: 16px;&quot;&gt;&lt;font color=&quot;#000000&quot;&gt;Decode 1&lt;/font&gt;&lt;/b&gt;" style="rounded=1;whiteSpace=wrap;html=1;fillColor=#fad7ac;strokeColor=#000000;direction=east;flipV=0;fontSize=16;" parent="80" vertex="1">
                    <mxGeometry x="20" y="170" width="80" height="40" as="geometry"/>
                </mxCell>
                <mxCell id="83" value="" style="shape=waypoint;sketch=0;fillStyle=solid;size=6;pointerEvents=1;points=[];fillColor=none;resizable=0;rotatable=0;perimeter=centerPerimeter;snapToPoint=1;strokeColor=#000000;fontSize=12;fontColor=#000000;" vertex="1" parent="80">
                    <mxGeometry x="10" y="180" width="20" height="20" as="geometry"/>
                </mxCell>
                <mxCell id="86" style="edgeStyle=none;html=1;entryX=1.105;entryY=0.419;entryDx=0;entryDy=0;entryPerimeter=0;labelBackgroundColor=none;strokeColor=#000000;fontSize=12;fontColor=#000000;" edge="1" parent="80" source="84" target="83">
                    <mxGeometry relative="1" as="geometry"/>
                </mxCell>
                <mxCell id="84" value="" style="shape=waypoint;sketch=0;fillStyle=solid;size=6;pointerEvents=1;points=[];fillColor=none;resizable=0;rotatable=0;perimeter=centerPerimeter;snapToPoint=1;strokeColor=#000000;fontSize=12;fontColor=#000000;" vertex="1" parent="80">
                    <mxGeometry x="-91" y="180" width="20" height="20" as="geometry"/>
                </mxCell>
                <mxCell id="82" value="" style="shape=waypoint;sketch=0;fillStyle=solid;size=6;pointerEvents=1;points=[];fillColor=none;resizable=0;rotatable=0;perimeter=centerPerimeter;snapToPoint=1;strokeColor=#000000;fontSize=12;fontColor=#000000;" vertex="1" parent="80">
                    <mxGeometry x="10" y="41" width="20" height="20" as="geometry"/>
                </mxCell>
                <mxCell id="85" style="edgeStyle=none;html=1;entryX=0.7;entryY=0.464;entryDx=0;entryDy=0;entryPerimeter=0;labelBackgroundColor=none;strokeColor=#000000;fontSize=12;fontColor=#000000;" edge="1" parent="80" source="81" target="82">
                    <mxGeometry relative="1" as="geometry"/>
                </mxCell>
                <mxCell id="81" value="" style="shape=waypoint;sketch=0;fillStyle=solid;size=6;pointerEvents=1;points=[];fillColor=none;resizable=0;rotatable=0;perimeter=centerPerimeter;snapToPoint=1;strokeColor=#000000;fontSize=12;fontColor=#000000;" vertex="1" parent="80">
                    <mxGeometry x="-91" y="41" width="20" height="20" as="geometry"/>
                </mxCell>
                <mxCell id="94" value="" style="edgeStyle=elbowEdgeStyle;elbow=horizontal;endArrow=classic;html=1;curved=0;rounded=0;endSize=8;startSize=8;labelBackgroundColor=none;strokeColor=#000000;fontSize=12;fontColor=#000000;exitX=0.972;exitY=0.491;exitDx=0;exitDy=0;exitPerimeter=0;entryX=0.461;entryY=0.503;entryDx=0;entryDy=0;entryPerimeter=0;" edge="1" parent="1" source="90" target="76">
                    <mxGeometry width="50" height="50" relative="1" as="geometry">
                        <mxPoint x="-240" as="sourcePoint"/>
                        <mxPoint x="-190" y="-50" as="targetPoint"/>
                    </mxGeometry>
                </mxCell>
                <mxCell id="95" value="" style="edgeStyle=elbowEdgeStyle;elbow=horizontal;endArrow=classic;html=1;curved=0;rounded=0;endSize=8;startSize=8;labelBackgroundColor=none;strokeColor=#000000;fontSize=12;fontColor=#000000;exitX=0.726;exitY=0.549;exitDx=0;exitDy=0;exitPerimeter=0;entryX=0.583;entryY=0.59;entryDx=0;entryDy=0;entryPerimeter=0;" edge="1" parent="1" source="89" target="76">
                    <mxGeometry width="50" height="50" relative="1" as="geometry">
                        <mxPoint x="-240" as="sourcePoint"/>
                        <mxPoint x="-190" y="-50" as="targetPoint"/>
                    </mxGeometry>
                </mxCell>
                <mxCell id="116" value="Info" style="swimlane;strokeColor=#000000;fontSize=12;fontColor=#000000;fillColor=#b6bcc4;startSize=26;" vertex="1" parent="1">
                    <mxGeometry x="-200" y="200.35" width="180" height="109.65" as="geometry"/>
                </mxCell>
                <mxCell id="115" value="&lt;b style=&quot;font-size: 16px;&quot;&gt;&lt;font color=&quot;#000000&quot;&gt;pc&lt;/font&gt;&lt;/b&gt;" style="rounded=1;whiteSpace=wrap;html=1;fillColor=#b6bcc4;strokeColor=#000000;direction=east;flipV=0;fontSize=16;" vertex="1" parent="116">
                    <mxGeometry x="10.999999999999991" y="29.650000000000006" width="65.24" height="31.67" as="geometry"/>
                </mxCell>
                <mxCell id="51" value="&lt;b style=&quot;font-size: 16px;&quot;&gt;&lt;font color=&quot;#000000&quot;&gt;inst&lt;/font&gt;&lt;/b&gt;" style="rounded=1;whiteSpace=wrap;html=1;fillColor=#b6bcc4;strokeColor=#000000;direction=east;flipV=0;fontSize=16;" vertex="1" parent="116">
                    <mxGeometry x="10.999999999999991" y="69.64999999999999" width="65.24" height="31.67" as="geometry"/>
                </mxCell>
                <mxCell id="117" value="&lt;font color=&quot;#000000&quot;&gt;&lt;b&gt;exception&lt;/b&gt;&lt;/font&gt;" style="rounded=1;whiteSpace=wrap;html=1;fillColor=#b6bcc4;strokeColor=#000000;direction=east;flipV=0;fontSize=16;" vertex="1" parent="1">
                    <mxGeometry x="-110" y="270" width="80" height="31.67" as="geometry"/>
                </mxCell>
            </root>
        </mxGraphModel>
    </diagram>
</mxfile>